<svg width="29" height="29" viewBox="0 0 29 29" fill="none" xmlns="http://www.w3.org/2000/svg">
<path d="M25.3752 17.2188V5.4375C25.3752 4.9568 25.1843 4.49578 24.8444 4.15587C24.5044 3.81596 24.0434 3.625 23.5627 3.625H5.43773C4.95703 3.625 4.49601 3.81596 4.1561 4.15587C3.81619 4.49578 3.62523 4.9568 3.62523 5.4375V17.2188M25.3752 17.2188H3.62523M25.3752 17.2188L27.9369 22.8266C28.0595 23.1025 28.1112 23.4046 28.0873 23.7056C28.0635 24.0065 27.9649 24.2967 27.8005 24.5499C27.636 24.803 27.4109 25.0111 27.1457 25.1552C26.8804 25.2993 26.5834 25.3748 26.2815 25.375H2.71898C2.417 25.375 2.1198 25.2996 1.85437 25.1556C1.58895 25.0116 1.36371 24.8036 1.19912 24.5504C1.03453 24.2972 0.935813 24.0069 0.911929 23.7059C0.888044 23.4048 0.939752 23.1026 1.06236 22.8266L3.62523 17.2188M12.6877 21.75H16.3127" stroke="#E61707" stroke-width="1.8125" stroke-linecap="round" stroke-linejoin="round"/>
</svg>
