<svg width="32" height="32" viewBox="0 0 32 32" fill="none" xmlns="http://www.w3.org/2000/svg">
<g clip-path="url(#clip0_119_91)">
<path d="M12.5697 20.7125C12.7459 20.5369 12.8452 20.2986 12.8456 20.0499C12.8461 19.8012 12.7477 19.5624 12.5722 19.3862C12.3967 19.21 12.1583 19.1108 11.9096 19.1103C11.6609 19.1098 11.4222 19.2082 11.246 19.3837L12.5697 20.7125ZM11.3997 12.2775C11.6086 12.4029 11.8581 12.442 12.0953 12.3866C12.3325 12.3312 12.5389 12.1857 12.6707 11.9808C12.8024 11.7759 12.8493 11.5277 12.8013 11.2889C12.7533 11.0501 12.6142 10.8393 12.4135 10.7012L11.3997 12.2775ZM14.6247 26.125L13.9622 26.7875L14.0072 26.83L14.6247 26.125ZM21.2797 19.54C21.2128 19.4366 21.1262 19.3473 21.0248 19.2774C20.9235 19.2075 20.8093 19.1582 20.6889 19.1323C20.4457 19.0802 20.1917 19.1268 19.9828 19.2619C19.774 19.397 19.6273 19.6095 19.5752 19.8527C19.523 20.0959 19.5696 20.3499 19.7047 20.5587L21.2797 19.54ZM15.2785 26.6975L15.941 26.035L15.9185 26.0125L15.896 25.9937L15.2785 26.6975ZM23.7047 15.5212L16.396 22.8075L17.721 24.135L25.0285 16.8475L23.7047 15.5212ZM10.8535 22.8075L9.13596 21.095L7.81221 22.425L9.52971 24.1375L10.8535 22.8075ZM9.13596 15.5775L16.446 8.28999L15.121 6.96249L7.81221 14.25L9.13596 15.5775ZM20.9335 6.43749H21.6447V4.56249H20.9322L20.9335 6.43749ZM25.5622 10.3412V11.05H27.4372V10.3412H25.5622ZM21.6447 6.43749C22.8147 6.43749 23.5997 6.43999 24.1835 6.51749C24.741 6.59249 24.9747 6.72124 25.1272 6.87249L26.451 5.54499C25.8922 4.98749 25.1972 4.76249 24.4322 4.65999C23.6947 4.55999 22.7622 4.56249 21.6447 4.56249V6.43749ZM27.4372 10.3412C27.4372 9.22624 27.4397 8.29624 27.3397 7.55999C27.2372 6.79624 27.0097 6.10249 26.451 5.54499L25.1247 6.87249C25.2772 7.02374 25.406 7.25624 25.481 7.80999C25.5585 8.39249 25.5622 9.17249 25.5622 10.3412H27.4372ZM9.13721 21.0962C8.30846 20.2712 7.75596 19.7162 7.39846 19.2487C7.05721 18.8037 6.98471 18.5487 6.98471 18.3362H5.10971C5.10971 19.1262 5.44096 19.7762 5.90971 20.3887C6.36096 20.9787 7.02221 21.635 7.81221 22.4237L9.13721 21.0962ZM9.52846 24.135C10.3185 24.9225 10.9785 25.5825 11.5697 26.0325C12.1835 26.5 12.8347 26.8287 13.6247 26.8287V24.9537C13.4085 24.9537 13.1522 24.88 12.7047 24.5412C12.2372 24.1837 11.681 23.6325 10.8535 22.8075L9.52846 24.135ZM25.0285 16.8475C26.0272 15.8537 26.7222 15.1825 27.0885 14.3025L25.3572 13.5837C25.1685 14.0387 24.811 14.4175 23.7047 15.5212L25.0285 16.8475ZM25.5622 11.05C25.5622 12.6112 25.546 13.1287 25.3572 13.5837L27.0885 14.3025C27.4535 13.4225 27.4372 12.4575 27.4372 11.05H25.5622ZM16.4447 8.29124C17.551 7.18749 17.9322 6.83124 18.3885 6.64249L17.6735 4.90999C16.7922 5.27374 16.1197 5.96749 15.121 6.96249L16.4447 8.29124ZM20.9322 4.56249C19.5197 4.56249 18.5547 4.54624 17.6735 4.90999L18.3885 6.64249C18.846 6.45499 19.3685 6.43749 20.9335 6.43749L20.9322 4.56249ZM9.99471 23.2787L12.5697 20.7125L11.246 19.3837L8.67096 21.9512L9.99471 23.2787ZM12.4135 10.7012L11.6272 10.195L10.6122 11.7712L11.3997 12.2775L12.4135 10.7012ZM11.6272 10.195C10.851 9.69499 10.2235 9.28999 9.68471 8.99999C9.13221 8.70249 8.61596 8.49124 8.04471 8.40749L7.77096 10.2625C8.04596 10.3025 8.34596 10.4087 8.79471 10.65C9.25471 10.8987 9.81221 11.2562 10.6122 11.7712L11.6272 10.195ZM2.44346 13.6925C3.14145 12.9868 3.8541 12.2959 4.58096 11.62C4.87462 11.3483 5.17903 11.0885 5.49346 10.8412C5.77221 10.6262 5.94971 10.5212 6.03346 10.4862L5.31471 8.75374C4.99346 8.88749 4.65596 9.11874 4.34846 9.35624C4.02596 9.60499 3.67346 9.90874 3.31596 10.235C2.60096 10.8875 1.81596 11.6712 1.11971 12.365L2.44346 13.6925ZM8.04471 8.40749C7.12014 8.27377 6.17662 8.39344 5.31471 8.75374L6.03346 10.4862C6.58161 10.2554 7.1821 10.1789 7.77096 10.2625L8.04471 8.40749ZM1.75971 15.4662L2.23346 15.6537L2.92346 13.9112L2.45096 13.7237L1.75971 15.4662ZM4.10346 16.88L5.30346 18.0775L6.62846 16.75L5.42971 15.5525L4.10346 16.88ZM2.23346 15.6537L2.37596 15.7112L3.08971 13.9775L2.92346 13.9112L2.23346 15.6537ZM5.42721 15.5525L5.30096 15.4275L3.99471 16.7725L4.10346 16.88L5.42721 15.5525ZM2.37596 15.7112C2.97846 15.9587 3.52721 16.32 3.99471 16.7737L5.30096 15.4275C4.66269 14.8081 3.91222 14.3159 3.08971 13.9775L2.37596 15.7112ZM1.11971 12.365C0.897045 12.5867 0.733085 12.8603 0.642625 13.1612C0.552165 13.4622 0.53805 13.7809 0.601556 14.0886C0.665061 14.3963 0.804187 14.6834 1.00638 14.9239C1.20857 15.1644 1.46747 15.3508 1.75971 15.4662L2.45096 13.7237L2.44221 13.7187L2.43846 13.7087V13.7L2.44346 13.6925L1.11971 12.365ZM19.706 20.5587L20.2135 21.3425L21.7872 20.3237L21.2797 19.54L19.706 20.5587ZM18.286 29.48L18.181 29.5862L19.506 30.9125L19.611 30.8087L18.286 29.48ZM20.2135 21.3425C20.731 22.1425 21.0885 22.6962 21.3385 23.155C21.5797 23.6025 21.686 23.9012 21.726 24.1737L23.581 23.8987C23.496 23.3275 23.2835 22.8112 22.986 22.2612C22.6947 21.7237 22.2885 21.0987 21.7872 20.3237L20.2135 21.3425ZM19.611 30.8087C20.3072 30.1137 21.0922 29.33 21.7472 28.6175C22.0735 28.2612 22.3785 27.91 22.6285 27.5887C22.866 27.2825 23.0985 26.945 23.2322 26.6237L21.5022 25.9025C21.404 26.0944 21.2845 26.2747 21.146 26.44C20.8982 26.7536 20.638 27.0572 20.366 27.35C19.6875 28.0744 18.9941 28.7846 18.286 29.48L19.611 30.8087ZM21.726 24.1737C21.811 24.7437 21.736 25.3412 21.501 25.9025L23.2322 26.6237C23.5947 25.7633 23.7153 24.8227 23.581 23.8987L21.726 24.1737ZM15.896 25.9937L15.2422 25.42L14.0072 26.83L14.6597 27.4025L15.896 25.9937ZM18.3072 29.6212C18.0385 28.9475 17.8772 28.54 17.6647 28.1537L16.021 29.0537C16.166 29.3162 16.281 29.6012 16.5647 30.3162L18.3072 29.6212ZM14.616 27.3625C15.161 27.905 15.3785 28.1237 15.5635 28.36L17.0385 27.2025C16.7672 26.8562 16.4547 26.5462 15.9397 26.0337L14.616 27.3625ZM17.666 28.1525C17.4829 27.8193 17.2731 27.5016 17.0385 27.2025L15.5635 28.36C15.7351 28.5783 15.8876 28.8096 16.021 29.0537L17.666 28.1525ZM19.8272 14.25C19.5471 14.5287 19.168 14.6851 18.7728 14.6851C18.3777 14.6851 17.9986 14.5287 17.7185 14.25L16.3947 15.5775C17.0264 16.2069 17.8817 16.5603 18.7735 16.5603C19.6652 16.5603 20.5206 16.2069 21.1522 15.5775L19.8272 14.25ZM17.7185 14.25C17.5799 14.1128 17.47 13.9496 17.3949 13.7697C17.3199 13.5898 17.2813 13.3968 17.2813 13.2019C17.2813 13.0069 17.3199 12.8139 17.3949 12.634C17.47 12.4541 17.5799 12.2909 17.7185 12.1537L16.3947 10.8262C16.0818 11.1375 15.8334 11.5076 15.664 11.9152C15.4945 12.3228 15.4073 12.7598 15.4073 13.2012C15.4073 13.6426 15.4945 14.0797 15.664 14.4873C15.8334 14.8949 16.0818 15.2649 16.3947 15.5762L17.7185 14.25ZM17.7185 12.1537C17.9987 11.8747 18.378 11.718 18.7735 11.718C19.1689 11.718 19.5483 11.8747 19.8285 12.1537L21.1522 10.8262C20.5206 10.1968 19.6652 9.84338 18.7735 9.84338C17.8817 9.84338 17.0264 10.1968 16.3947 10.8262L17.7185 12.1537ZM19.8285 12.1537C19.967 12.2909 20.0769 12.4541 20.152 12.634C20.227 12.8139 20.2656 13.0069 20.2656 13.2019C20.2656 13.3968 20.227 13.5898 20.152 13.7697C20.0769 13.9496 19.9657 14.1128 19.8272 14.25L21.1522 15.5775C21.4651 15.2662 21.7135 14.8961 21.8829 14.4885C22.0524 14.0809 22.1396 13.6439 22.1396 13.2025C22.1396 12.7611 22.0524 12.324 21.8829 11.9164C21.7135 11.5089 21.4651 11.1375 21.1522 10.8262L19.8285 12.1537ZM18.1797 29.585C18.1902 29.5765 18.202 29.5697 18.2147 29.565L18.2435 29.5637L18.2735 29.5787C18.2885 29.5912 18.2993 29.6054 18.306 29.6212L16.5635 30.315C17.0435 31.5187 18.6035 31.81 19.5035 30.9125L18.1797 29.585ZM16.396 22.8075C15.7572 23.445 15.2747 23.9237 14.861 24.28C14.4472 24.6387 14.1672 24.8125 13.9485 24.8937L14.596 26.6537C15.131 26.4562 15.6135 26.1087 16.0872 25.6987C16.561 25.2887 17.0972 24.755 17.7185 24.1362L16.396 22.8075ZM13.9485 24.8937C13.8449 24.9342 13.7359 24.9546 13.6247 24.9537V26.8287C13.9614 26.8279 14.2843 26.7696 14.596 26.6537L13.9485 24.8937ZM15.286 25.4625L14.936 25.1112L13.6085 26.4362L13.961 26.7875L15.286 25.4625ZM7.81221 14.25C7.20596 14.855 6.68221 15.3762 6.27471 15.84C5.86971 16.3025 5.52346 16.7712 5.31721 17.285L7.05596 17.985C7.14471 17.7637 7.32721 17.485 7.68471 17.0762C8.04096 16.67 8.51346 16.1987 9.13596 15.5762L7.81221 14.25ZM5.31721 17.285C5.17978 17.6184 5.10928 17.9756 5.10971 18.3362H6.98471C6.98471 18.2237 7.00471 18.1137 7.05596 17.985L5.31721 17.285ZM5.30346 18.0775L5.52346 18.2975L6.84846 16.9725L6.63096 16.75L5.30346 18.0775Z" fill="#E61707"/>
</g>
<defs>
<clipPath id="clip0_119_91">
<rect width="32" height="32" fill="white"/>
</clipPath>
</defs>
</svg>
