<svg width="329" height="289" viewBox="0 0 329 289" fill="none" xmlns="http://www.w3.org/2000/svg">
<path d="M149.583 -6.25349C139.569 -32.3083 90.0262 -45.1747 98.2017 6.7028C99.5423 15.209 99.6771 29.8558 98.2017 47.6841C96.8502 64.0158 70.3926 72.9521 62.271 94.0544C49.534 127.149 97.1569 150.216 89.5784 167.614C79.6524 190.4 49.2596 200.286 32.4485 212.752C16.6227 224.488 6.54209 243.318 2.67152 262.678C-4.11892 296.642 8.20405 332.235 42.1498 334.006C59.1429 334.892 81.5545 327.303 109.7 306.791C122.283 297.62 133.379 290.062 143.241 283.951C168.623 268.221 161.799 305.428 191.981 306.791C209.178 307.568 227.14 275.447 240.737 292.581C250.406 304.763 261.501 319.545 277.345 334.742C305.171 361.431 339.961 365.361 344.881 327.271C347.204 309.29 342.871 281.945 328.007 243.211C318.496 218.424 342.155 219.298 344.881 187.533C347.607 155.769 325.316 141.121 341.453 127.974L341.776 127.711C354.076 117.691 367.194 107.005 374.358 86.4801C380.529 68.7999 379.94 51.2889 374.358 37.8335C368.384 23.4331 356.693 13.6779 341.453 13.3319C326.161 12.9847 307.295 22.1103 287.046 45.521C273.696 60.9561 264.655 25.041 240.737 28.7124C216.82 32.3838 213.495 67.0373 199.167 56.9864C174.278 39.5272 161.311 24.2614 149.583 -6.25349Z" stroke="url(#paint0_radial_119_148)" stroke-opacity="0.6" stroke-width="1.7522"/>
<path d="M197.894 135.87C196.37 131.87 189.267 132.92 188.908 137.255C188.499 142.191 190.993 148.622 190.705 153.57C190.148 163.122 186.774 165.841 180.054 170.876C177.646 172.678 176.112 175.568 175.523 178.54C174.489 183.754 176.364 189.219 181.531 189.49C184.117 189.627 187.527 188.461 191.811 185.313C193.726 183.905 195.414 182.744 196.915 181.806C203.448 177.395 209.529 180.851 211.753 183.131C213.224 185.001 214.913 187.271 217.324 189.604C221.559 193.701 227.971 193.164 227.602 188.456C227.08 181.806 215.726 156.982 227.602 152.654C233.118 150.643 232.937 146.089 232.088 144.023C231.179 141.812 229.399 140.315 227.08 140.262C224.753 140.208 220.898 144.023 218.8 145.203C211.058 149.56 204.149 151.812 197.894 135.87Z" stroke="url(#paint1_radial_119_148)" stroke-opacity="0.6" stroke-width="1.7522"/>
<path d="M106.485 18.053C99.2296 -29.1736 144.503 -17.401 153.684 6.48469C164.924 35.6861 177.351 49.3721 200.701 64.8637C213.833 73.9549 216.994 42.3138 238.894 38.8747C260.794 35.4357 269.161 68.0271 281.414 53.9863C300.048 32.6916 317.375 24.5241 331.372 25.0395C345.278 25.4475 355.939 34.4723 361.325 47.7227C366.355 60.1134 366.77 76.1934 360.904 92.3699C353.248 111.598 342.192 123.566 330.964 133.352C316.298 145.526 336.443 158.972 333.773 187.89C331.103 216.809 309.334 215.934 317.796 238.301C331.1 273.331 334.889 298.005 332.642 314.195C328.064 348.748 296.22 345.043 270.665 320.707C256.01 306.827 245.629 293.399 236.534 282.514C224.026 267.011 207.53 296.339 191.708 295.76C164.051 294.661 170.085 260.907 146.835 275.279C137.707 280.899 127.474 287.799 115.907 296.137C89.8287 314.774 69.2663 321.186 53.8987 319.909C23.039 318.164 11.8749 285.648 18.1223 254.628C21.713 236.895 30.9748 219.657 45.4839 208.899C61.3911 197.103 89.3517 187.862 98.4337 166.269C105.342 150.218 61.9612 128.974 73.5016 98.6073C80.8424 79.1514 104.868 70.7646 106.116 55.6831C107.475 39.267 107.522 25.8195 106.485 18.053Z" stroke="url(#paint2_radial_119_148)" stroke-opacity="0.6" stroke-width="1.7522"/>
<path d="M115.141 29.8811C108.815 -12.5396 149.754 -1.89952 158.088 19.7383C168.824 47.5276 180.692 59.5892 202.47 73.0632C214.387 81.1651 217.378 52.6404 237.229 49.4451C257.079 46.2499 264.76 75.4109 275.897 62.8105C292.891 43.7016 308.654 36.5187 321.335 37.2001C333.885 37.6686 343.5 45.9331 348.292 57.9898C352.762 69.275 353.002 83.8708 347.45 98.4903C339.376 116.178 330.567 129.378 320.519 138.82C307.346 149.98 325.315 162.179 322.705 188.157C320.095 214.136 300.247 213.262 307.647 233.136C319.373 264.348 322.612 286.271 320.444 300.618C316.215 331.52 287.364 328.052 264.116 306.149C250.673 293.631 241.019 281.602 232.513 272.05C221.112 258.227 206.104 284.667 191.682 284.286C166.591 283.456 171.826 253.265 150.742 266.231C142.36 271.342 133.006 277.561 122.472 285.038C98.4982 301.741 79.8152 306.955 66.0956 305.292C38.3672 303.579 28.3784 274.248 34.0736 246.273C37.3792 230.226 45.8086 214.637 58.9797 204.891C73.9599 193.804 99.4475 185.241 107.672 164.913C113.901 150.26 74.8251 130.91 85.1518 103.372C91.7012 85.6267 113.26 77.8174 114.403 64.0359C115.643 49.0862 115.872 36.8825 115.141 29.8811Z" stroke="url(#paint3_radial_119_148)" stroke-opacity="0.6" stroke-width="1.7522"/>
<path d="M123.422 41.232C118.017 3.46223 154.684 13.0085 162.184 32.477C172.433 58.9524 183.761 69.4341 204 80.9406C214.72 88.0829 217.548 62.5707 235.379 59.6078C253.211 56.6449 260.216 82.4821 270.256 71.2762C285.635 54.2833 299.859 48.0585 311.243 48.908C322.458 49.4384 331.042 56.9724 335.245 67.8792C339.163 78.0995 339.228 91.2642 333.981 104.38C325.476 120.591 318.901 135.066 310.019 144.197C298.318 154.384 314.138 165.38 311.584 188.512C309.029 211.645 291.073 210.77 297.422 228.224C307.587 255.733 310.282 274.984 308.189 287.542C304.302 314.905 278.4 311.663 257.423 292.113C245.171 280.911 236.231 270.237 228.298 261.982C217.987 249.789 204.445 273.437 191.399 273.253C168.835 272.688 173.28 245.95 154.329 257.558C146.68 262.178 138.19 267.738 128.674 274.382C106.767 289.21 89.9348 293.247 77.8421 291.194C53.2024 289.506 44.3734 263.253 49.5253 238.223C52.551 223.802 60.161 209.805 72.0145 201.036C86.091 190.62 109.145 182.703 116.525 163.568C122.084 150.262 87.2528 132.735 96.3818 107.925C102.15 91.8263 121.274 84.5665 122.314 72.0352C123.438 58.4979 123.849 47.4937 123.422 41.232Z" stroke="url(#paint4_radial_119_148)" stroke-opacity="0.6" stroke-width="1.7522"/>
<path d="M132.072 52.5822C127.598 19.4649 159.928 27.9172 166.581 45.216C176.324 70.3796 187.093 79.2806 205.757 88.8182C215.262 95.0004 217.92 72.5015 233.701 69.7709C249.482 67.0403 255.801 89.5525 264.724 79.7414C278.461 64.8653 291.12 59.5991 301.188 60.6171C311.047 61.2097 318.585 68.0133 322.192 77.7699C325.551 86.9254 325.441 98.6587 320.508 110.27C311.587 125.005 307.257 140.759 299.556 149.581C289.349 158.794 302.993 168.587 300.498 188.873C298.004 209.159 281.971 208.283 287.257 223.315C295.844 247.119 297.989 263.699 295.975 274.465C292.437 298.289 269.53 295.272 250.862 278.075C239.822 268.19 231.611 258.871 224.266 251.915C215.063 241.352 203.012 262.208 191.365 262.221C171.368 261.921 175.014 238.637 158.23 248.886C151.328 253.015 143.718 257.917 135.235 263.728C115.435 276.68 100.483 279.539 90.0384 277.095C68.5312 275.432 60.8778 252.257 65.4773 230.172C68.2176 217.378 74.9947 204.974 85.5095 197.183C98.6577 187.435 119.237 180.165 125.76 162.222C130.638 150.261 100.114 134.559 108.029 112.477C113.005 98.0251 129.662 91.3146 130.597 80.0335C131.602 67.9086 132.194 58.104 132.072 52.5822Z" stroke="url(#paint5_radial_119_148)" stroke-opacity="0.6" stroke-width="1.7522"/>
<path d="M140.721 64.4666C137.176 36.0758 165.168 43.4151 170.974 58.5055C180.21 82.3003 190.418 89.6008 207.505 97.1485C215.794 102.357 218.282 82.9216 232.012 80.4294C245.742 77.9372 251.373 97.0743 259.181 88.6799C271.275 75.9537 282.369 71.6578 291.12 72.842C299.622 73.4953 306.114 79.5532 309.126 88.1378C311.925 96.2079 311.641 106.484 307.023 116.565C297.689 129.79 295.602 146.787 289.082 155.279C280.368 163.499 291.836 172.067 289.402 189.461C286.968 206.855 272.859 205.979 277.083 218.557C284.092 238.602 285.688 252.473 283.753 261.424C280.565 281.656 260.653 278.87 244.294 264.066C234.468 255.52 226.986 247.577 220.231 241.935C212.135 233.026 201.575 251.042 191.328 251.252C173.899 251.218 176.747 231.44 162.13 240.308C155.976 243.937 149.245 248.169 141.796 253.133C124.104 264.182 111.033 265.856 102.237 263.026C83.8624 261.393 77.3845 241.348 81.4313 222.256C83.8861 211.119 89.83 200.335 99.0058 193.538C111.224 184.483 129.328 177.874 134.993 161.165C139.19 150.576 112.974 136.733 119.675 117.429C123.86 104.656 138.048 98.5101 138.878 88.5046C139.764 77.8193 140.538 69.2363 140.721 64.4666Z" stroke="url(#paint6_radial_119_148)" stroke-opacity="0.6" stroke-width="1.7522"/>
<path d="M148.993 75.817C146.371 52.081 170.084 58.3259 175.055 71.2458C183.803 93.7312 193.471 99.4496 209.017 105.027C216.106 109.274 218.431 92.8537 230.138 90.5937C241.845 88.3337 246.801 104.144 253.508 97.145C263.985 86.5367 273.537 83.2002 280.989 84.5534C288.153 85.2691 293.612 90.5965 296.035 98.0307C298.281 105.036 297.821 113.88 293.509 122.456C283.741 134.205 283.893 152.486 278.541 160.67C271.302 167.916 280.617 175.281 278.239 189.827C275.86 204.374 263.646 203.495 266.817 213.65C272.262 229.988 273.312 241.185 271.453 248.344C268.608 265.034 251.65 262.473 237.566 250.024C228.932 242.795 222.165 236.208 215.984 231.865C208.98 224.588 199.889 239.81 191.021 240.218C176.124 240.45 178.178 224.128 165.699 231.636C160.279 234.774 154.414 238.347 147.984 242.477C132.363 251.65 121.145 252.144 113.979 248.922C98.6992 247.313 93.3834 230.349 96.8859 214.203C99.0603 204.693 104.183 195.503 112.039 189.684C123.353 181.297 139.019 175.335 143.838 159.816C147.364 150.574 125.4 138.554 130.901 121.98C134.303 110.854 146.053 105.257 146.78 96.502C147.549 87.2294 148.505 79.8464 148.993 75.817Z" stroke="url(#paint7_radial_119_148)" stroke-opacity="0.6" stroke-width="1.7522"/>
<path d="M157.63 87.1665C155.938 68.0891 175.308 73.2388 179.43 83.9872C187.667 105.168 196.769 109.302 210.732 112.905C216.605 116.191 218.758 102.787 228.412 100.759C238.065 98.7313 242.333 111.211 247.922 105.609C256.753 97.1207 264.738 94.7449 270.872 96.268C276.679 97.0466 281.09 101.643 282.918 107.927C284.604 113.866 283.97 121.278 279.975 128.349C269.802 138.621 272.191 158.198 268.02 166.075C262.275 172.348 269.414 178.509 267.097 190.205C264.781 201.901 254.493 201.021 256.603 208.75C260.471 221.376 260.972 229.897 259.193 235.261C256.699 248.406 242.74 246.07 230.968 235.977C223.55 230.067 217.515 224.837 211.926 221.795C206.032 216.151 198.433 228.577 190.968 229.184C178.641 229.682 179.898 216.819 169.589 222.967C164.918 225.614 159.934 228.528 154.54 231.823C141.032 239.119 131.697 238.429 126.18 234.812C114.035 233.229 109.895 219.346 112.844 206.148C114.732 198.267 119.021 190.671 125.536 185.829C135.914 178.11 149.101 172.793 153.061 158.463C155.906 150.567 138.254 140.373 142.54 126.529C145.15 117.05 154.431 112.002 155.052 104.497C155.702 96.6377 156.839 90.4553 157.63 87.1665Z" stroke="url(#paint8_radial_119_148)" stroke-opacity="0.6" stroke-width="1.7522"/>
<path d="M166.025 98.515C165.255 84.1022 180.387 88.1558 183.683 96.7308C191.457 116.614 200.046 119.16 212.506 120.785C217.193 123.107 219.188 112.724 226.841 110.927C234.493 109.131 238.095 118.276 242.598 114.073C249.832 107.706 256.293 106.293 261.141 107.988C265.622 108.83 269.01 112.696 270.252 117.828C271.387 122.702 270.575 128.68 266.874 134.244C256.232 143.041 260.879 163.927 257.868 171.5C253.587 176.8 258.585 181.756 256.317 190.599C254.049 199.441 245.632 198.558 246.69 203.857C248.999 212.766 248.953 218.605 247.244 222.171C245.086 231.767 234.05 229.654 224.527 221.92C218.283 217.33 212.946 213.459 207.917 211.722C203.101 207.713 196.953 217.34 190.849 218.146C181.026 218.912 181.491 209.514 173.296 214.3L173.069 214.424C169.19 216.542 165.134 218.756 160.83 221.169C149.358 226.584 141.857 224.707 137.96 220.692C128.884 219.132 125.899 208.334 128.311 198.088C129.923 191.837 133.401 185.836 138.611 181.974C148.114 174.921 158.894 170.249 162.017 157.103C164.196 150.554 150.76 142.185 153.855 131.074C155.686 123.243 162.546 118.743 163.066 112.489C163.601 106.043 164.925 101.062 166.025 98.515Z" stroke="url(#paint9_radial_119_148)" stroke-opacity="0.6" stroke-width="1.7522"/>
<path d="M174.641 110.414C174.8 100.729 185.576 103.669 188.021 110.033C195.273 128.527 203.285 129.476 214.147 129.115C217.612 130.465 219.434 123.146 225.026 121.59C230.618 120.033 233.527 125.804 236.908 123.017C242.489 118.801 247.376 118.357 250.902 120.215C254.021 121.117 256.359 124.235 257.005 128.193C257.58 131.979 256.596 136.497 253.216 140.53C242.184 147.811 249.058 169.911 247.231 177.147C244.447 181.45 247.265 185.179 245.062 191.129C242.859 197.078 236.378 196.197 236.375 199.043C237.106 204.195 236.512 207.327 234.886 209.08C233.081 215.084 225.054 213.205 217.853 207.864C212.831 204.615 208.233 202.119 203.801 201.694C200.1 199.338 195.451 206.124 190.756 207.126C183.513 208.156 183.181 202.263 177.163 205.667C173.969 207.321 170.724 208.905 167.377 210.518C158.03 214.029 152.419 210.973 150.174 206.578C144.24 205.05 142.433 197.384 144.288 190.134C145.613 185.541 148.253 181.163 152.117 178.297C160.673 171.941 168.963 167.935 171.224 156.034C172.721 150.86 163.607 144.354 165.484 136.025C166.523 129.877 170.909 125.944 171.322 120.97C171.737 115.966 173.239 112.209 174.641 110.414Z" stroke="url(#paint10_radial_119_148)" stroke-opacity="0.6" stroke-width="1.7522"/>
<path d="M183.385 121.779C184.468 116.788 190.923 118.622 192.523 122.794C199.265 139.943 206.712 139.3 215.999 136.959C218.251 137.341 219.903 133.065 223.452 131.744C227 130.423 229.223 132.841 231.491 131.461C235.435 129.381 238.762 129.901 240.975 131.926C242.744 132.889 244.04 135.268 244.094 138.064C244.112 140.773 242.955 143.845 239.892 146.359C228.457 152.144 237.556 175.499 236.904 182.413C235.607 185.731 236.259 188.245 234.118 191.323C231.977 194.4 227.414 193.518 226.356 193.925C225.517 195.343 224.378 195.783 222.832 195.731C221.376 198.166 216.333 196.516 211.434 193.551C207.623 191.63 203.753 190.501 199.911 191.382C197.314 190.671 194.151 194.637 190.852 195.836C186.168 197.132 185.042 194.722 181.184 196.754C178.736 197.912 176.368 198.831 174.052 199.603C166.808 201.223 163.072 196.986 162.467 192.204C159.652 190.703 159.015 186.146 160.32 181.868C161.359 178.918 163.169 176.149 165.699 174.269C173.323 168.596 179.145 165.246 180.552 154.561C181.371 150.749 176.546 146.087 177.216 140.514C177.466 136.032 179.395 132.657 179.703 128.947C180.001 125.372 181.681 122.826 183.385 121.779Z" stroke="url(#paint11_radial_119_148)" stroke-opacity="0.6" stroke-width="1.7522"/>
<defs>
<radialGradient id="paint0_radial_119_148" cx="0" cy="0" r="1" gradientUnits="userSpaceOnUse" gradientTransform="translate(158.876 205.5) rotate(-48.9603) scale(184.288 191.636)">
<stop stop-color="#E61707"/>
<stop offset="1" stop-color="#4A0B06" stop-opacity="0"/>
</radialGradient>
<radialGradient id="paint1_radial_119_148" cx="0" cy="0" r="1" gradientUnits="userSpaceOnUse" gradientTransform="translate(158.876 205.5) rotate(-48.9603) scale(184.288 191.636)">
<stop stop-color="#E61707"/>
<stop offset="1" stop-color="#4A0B06" stop-opacity="0"/>
</radialGradient>
<radialGradient id="paint2_radial_119_148" cx="0" cy="0" r="1" gradientUnits="userSpaceOnUse" gradientTransform="translate(158.876 205.5) rotate(-48.9603) scale(184.288 191.636)">
<stop stop-color="#E61707"/>
<stop offset="1" stop-color="#4A0B06" stop-opacity="0"/>
</radialGradient>
<radialGradient id="paint3_radial_119_148" cx="0" cy="0" r="1" gradientUnits="userSpaceOnUse" gradientTransform="translate(158.876 205.5) rotate(-48.9603) scale(184.288 191.636)">
<stop stop-color="#E61707"/>
<stop offset="1" stop-color="#4A0B06" stop-opacity="0"/>
</radialGradient>
<radialGradient id="paint4_radial_119_148" cx="0" cy="0" r="1" gradientUnits="userSpaceOnUse" gradientTransform="translate(158.876 205.5) rotate(-48.9603) scale(184.288 191.636)">
<stop stop-color="#E61707"/>
<stop offset="1" stop-color="#4A0B06" stop-opacity="0"/>
</radialGradient>
<radialGradient id="paint5_radial_119_148" cx="0" cy="0" r="1" gradientUnits="userSpaceOnUse" gradientTransform="translate(158.876 205.5) rotate(-48.9603) scale(184.288 191.636)">
<stop stop-color="#E61707"/>
<stop offset="1" stop-color="#4A0B06" stop-opacity="0"/>
</radialGradient>
<radialGradient id="paint6_radial_119_148" cx="0" cy="0" r="1" gradientUnits="userSpaceOnUse" gradientTransform="translate(158.876 205.5) rotate(-48.9603) scale(184.288 191.636)">
<stop stop-color="#E61707"/>
<stop offset="1" stop-color="#4A0B06" stop-opacity="0"/>
</radialGradient>
<radialGradient id="paint7_radial_119_148" cx="0" cy="0" r="1" gradientUnits="userSpaceOnUse" gradientTransform="translate(158.876 205.5) rotate(-48.9603) scale(184.288 191.636)">
<stop stop-color="#E61707"/>
<stop offset="1" stop-color="#4A0B06" stop-opacity="0"/>
</radialGradient>
<radialGradient id="paint8_radial_119_148" cx="0" cy="0" r="1" gradientUnits="userSpaceOnUse" gradientTransform="translate(158.876 205.5) rotate(-48.9603) scale(184.288 191.636)">
<stop stop-color="#E61707"/>
<stop offset="1" stop-color="#4A0B06" stop-opacity="0"/>
</radialGradient>
<radialGradient id="paint9_radial_119_148" cx="0" cy="0" r="1" gradientUnits="userSpaceOnUse" gradientTransform="translate(158.876 205.5) rotate(-48.9603) scale(184.288 191.636)">
<stop stop-color="#E61707"/>
<stop offset="1" stop-color="#4A0B06" stop-opacity="0"/>
</radialGradient>
<radialGradient id="paint10_radial_119_148" cx="0" cy="0" r="1" gradientUnits="userSpaceOnUse" gradientTransform="translate(158.876 205.5) rotate(-48.9603) scale(184.288 191.636)">
<stop stop-color="#E61707"/>
<stop offset="1" stop-color="#4A0B06" stop-opacity="0"/>
</radialGradient>
<radialGradient id="paint11_radial_119_148" cx="0" cy="0" r="1" gradientUnits="userSpaceOnUse" gradientTransform="translate(158.876 205.5) rotate(-48.9603) scale(184.288 191.636)">
<stop stop-color="#E61707"/>
<stop offset="1" stop-color="#4A0B06" stop-opacity="0"/>
</radialGradient>
</defs>
</svg>
