<svg width="433" height="89" viewBox="0 0 433 89" fill="none" xmlns="http://www.w3.org/2000/svg">
<g clip-path="url(#clip0_119_444)">
<path d="M96.1754 34.089C92.7633 28.436 86.5629 24.6588 79.4789 24.6588C72.3949 24.6588 66.4368 28.2906 62.9846 33.7612C61.4823 36.1358 60.4817 38.8555 60.1282 41.7717C60.0313 42.5529 59.9828 43.3454 59.9828 44.1521C59.9828 44.9589 60.0313 45.7542 60.1282 46.5325C60.2907 47.8694 60.5871 49.1609 61.0062 50.4009C61.3968 51.5554 62.4715 52.3422 63.6916 52.3422C65.6215 52.3422 66.9927 50.4465 66.3713 48.6192C66.1404 47.9436 65.9608 47.2423 65.8354 46.5239V46.5182C65.7013 45.7485 65.6329 44.9589 65.6329 44.1521C65.6329 43.3454 65.7013 42.5557 65.8354 41.786V41.7803C66.9614 35.2664 72.6401 30.309 79.4761 30.309C87.1814 30.309 93.4162 36.6062 93.3165 44.3346C93.2168 51.9403 86.8763 57.9924 79.2709 57.9924H44.1527C36.4443 57.9924 30.2098 51.6951 30.3095 43.9668C30.4093 36.3611 36.7494 30.309 44.3551 30.309H58.1583C59.7205 30.309 60.9834 29.0432 60.9834 27.4839C60.9834 25.9245 59.7177 24.6588 58.1583 24.6588H44.3978C33.6506 24.6588 24.7421 33.2538 24.6594 44.001C24.5767 54.8338 33.337 63.6425 44.1527 63.6425H79.4789C86.5629 63.6425 92.7633 59.8625 96.1754 54.2123C97.9518 51.2761 98.972 47.8296 98.972 44.1493C98.972 40.469 97.9518 37.0253 96.1754 34.0862V34.089Z" fill="white"/>
<path d="M177.516 24.6588H148.185C146.622 24.6588 145.359 25.9245 145.359 27.4839C145.359 29.0432 146.625 30.309 148.185 30.309H177.516C179.078 30.309 180.341 29.0432 180.341 27.4839C180.341 25.9245 179.075 24.6588 177.516 24.6588Z" fill="white"/>
<path d="M228.875 40.2495H215.644C212.947 40.2495 210.653 38.1513 210.558 35.4603C210.459 32.6323 212.722 30.3118 215.524 30.3118H222.298V32.0251C222.298 33.5873 223.563 34.8502 225.123 34.8502C226.682 34.8502 227.948 33.5845 227.948 32.0251V27.3157C227.948 25.8476 226.759 24.6588 225.291 24.6588H215.527C213.728 24.6588 212.035 25.1064 210.55 25.896C208.671 26.8909 207.129 28.4332 206.134 30.3118C205.347 31.7942 204.9 33.4875 204.9 35.2864C204.9 37.0852 205.344 38.77 206.128 40.2523C206.442 40.8453 206.81 41.404 207.223 41.9228V41.9428C206.37 42.4588 205.589 43.0802 204.9 43.7929C204.278 44.4315 203.725 45.1413 203.263 45.9081C202.189 47.6756 201.573 49.7538 201.573 51.9717C201.573 54.1895 202.192 56.2706 203.266 58.038C204.247 59.6572 205.607 61.0199 207.226 62.0005C208.996 63.0753 211.072 63.691 213.292 63.691H224.823C226.548 63.691 227.948 62.2913 227.948 60.5666V45.9081H228.872C230.434 45.9081 231.697 44.6424 231.697 43.0831C231.697 41.5237 230.431 40.258 228.872 40.258L228.875 40.2495ZM222.298 58.0323H213.295C209.943 58.0323 207.229 55.3184 207.229 51.966C207.229 48.6135 209.943 45.9024 213.295 45.9024H222.298V58.0323Z" fill="white"/>
<path d="M177.525 57.9957H143.661C142.193 60.1508 140.391 62.0608 138.33 63.6458H177.525C179.084 63.6458 180.35 62.3801 180.35 60.8207C180.35 59.2614 179.084 57.9957 177.525 57.9957Z" fill="white"/>
<path d="M296.157 30.3124H325.489C327.051 30.3124 328.314 29.0467 328.314 27.4873C328.314 25.928 327.048 24.6622 325.489 24.6622H296.157C294.595 24.6622 293.333 25.928 293.333 27.4873C293.333 29.0467 294.598 30.3124 296.157 30.3124Z" fill="white"/>
<path d="M365.148 24.6588C363.586 24.6588 362.323 25.9245 362.323 27.4839V53.5139L336.906 25.5796C336.846 25.514 336.78 25.4485 336.715 25.3886C336.706 25.38 336.698 25.3743 336.689 25.3658C336.632 25.3145 336.572 25.2689 336.512 25.2233C336.495 25.209 336.475 25.1947 336.458 25.1833C336.407 25.1463 336.356 25.1121 336.301 25.0807C336.273 25.0636 336.244 25.0465 336.216 25.0294C336.17 25.0038 336.125 24.9809 336.076 24.9553C336.039 24.9353 336.002 24.9182 335.962 24.9011C335.922 24.884 335.882 24.8669 335.842 24.8527C335.794 24.8327 335.749 24.8156 335.697 24.8013C335.666 24.7899 335.632 24.7814 335.597 24.7728C335.537 24.7557 335.477 24.7386 335.417 24.7272C335.395 24.7215 335.369 24.7187 335.346 24.713C335.272 24.6987 335.201 24.6873 335.127 24.6788C335.115 24.6788 335.101 24.6788 335.09 24.6759C335.001 24.6674 334.913 24.6617 334.824 24.6617C334.143 24.6617 333.462 24.9011 332.918 25.3943C332.256 25.9987 331.948 26.8425 332.002 27.672V57.9981H294.57C293.791 60.0478 292.594 61.8922 291.086 63.4287C291.018 63.5 290.949 63.5656 290.881 63.634C290.875 63.6397 290.872 63.6426 290.866 63.6483H334.736C336.347 63.6483 337.656 62.3426 337.656 60.7291V34.7988L363.067 62.7246C363.084 62.7418 363.101 62.7589 363.118 62.7759C363.147 62.8073 363.178 62.8358 363.21 62.8672C363.249 62.9042 363.286 62.9413 363.327 62.9755C363.352 62.9983 363.381 63.0211 363.409 63.0439C363.455 63.0809 363.5 63.1152 363.549 63.1494C363.574 63.1665 363.6 63.1836 363.626 63.2007C363.677 63.2349 363.731 63.2662 363.782 63.2976C363.808 63.3119 363.834 63.3233 363.86 63.3375C363.914 63.366 363.971 63.3946 364.028 63.4174C364.056 63.4287 364.084 63.4401 364.11 63.4515C364.168 63.4744 364.225 63.4972 364.282 63.5143C364.31 63.5228 364.341 63.5314 364.37 63.5399C364.429 63.5571 364.489 63.5742 364.549 63.5856C364.578 63.5913 364.609 63.5969 364.638 63.6026C364.701 63.614 364.766 63.6254 364.829 63.6311C364.854 63.634 364.883 63.6369 364.908 63.6397C364.977 63.6454 365.048 63.6483 365.117 63.6511C365.128 63.6511 365.139 63.6511 365.151 63.6511C365.162 63.6511 365.174 63.6511 365.185 63.6511C365.256 63.6511 365.327 63.6454 365.399 63.6397C365.422 63.6397 365.447 63.6369 365.47 63.634C365.539 63.6254 365.607 63.6169 365.675 63.6026C365.698 63.5969 365.724 63.5941 365.746 63.5884C365.812 63.5742 365.88 63.5571 365.946 63.5371C365.969 63.5314 365.992 63.5228 366.015 63.5171C366.08 63.4972 366.143 63.4715 366.206 63.4458C366.228 63.4373 366.248 63.4287 366.271 63.4202C366.334 63.3946 366.394 63.3632 366.454 63.3318C366.476 63.3204 366.496 63.309 366.519 63.2976C366.576 63.2662 366.633 63.2321 366.688 63.195C366.71 63.1807 366.733 63.1665 366.756 63.1494C366.807 63.1152 366.856 63.0753 366.907 63.0382C366.933 63.0183 366.955 62.9983 366.981 62.9783C367.004 62.9584 367.029 62.9413 367.052 62.9214C367.075 62.9014 367.095 62.8786 367.115 62.8558C367.137 62.833 367.161 62.813 367.181 62.7902C367.224 62.7446 367.266 62.699 367.306 62.6505C367.323 62.6305 367.34 62.6077 367.357 62.5878C367.397 62.5365 367.437 62.4852 367.474 62.431C367.488 62.4111 367.502 62.3883 367.517 62.3654C367.554 62.3113 367.588 62.2542 367.619 62.1972C367.634 62.1716 367.645 62.1488 367.659 62.1231C367.688 62.069 367.716 62.0119 367.739 61.9549C367.754 61.9235 367.765 61.8951 367.776 61.8637C367.796 61.8095 367.819 61.7553 367.836 61.7012C367.847 61.667 367.856 61.6299 367.867 61.5958C367.882 61.5444 367.896 61.4903 367.907 61.4389C367.916 61.4019 367.922 61.362 367.93 61.3249C367.939 61.2707 367.948 61.2194 367.956 61.1653C367.962 61.1282 367.964 61.0883 367.967 61.0513C367.973 60.9942 367.976 60.94 367.976 60.8831C367.976 60.8631 367.978 60.846 367.978 60.826V27.4924C367.978 25.9302 366.713 24.6674 365.153 24.6674L365.148 24.6588Z" fill="white"/>
<path d="M283.087 42.5937C281.431 41.6359 279.51 41.0914 277.46 41.0914H264.127C261.1 41.0914 258.656 38.5827 258.765 35.5324C258.867 32.6247 261.345 30.3641 264.255 30.3641H285.71C287.269 30.3641 288.535 29.0983 288.535 27.539C288.535 25.9797 287.269 24.7139 285.71 24.7139H264.127C262.18 24.7139 260.35 25.2185 258.762 26.1051C256.977 27.1 255.498 28.5795 254.503 30.3641C253.614 31.9519 253.109 33.7792 253.109 35.7291C253.109 37.6791 253.614 39.5063 254.503 41.0942C255.498 42.8788 256.977 44.3583 258.762 45.3532C259.965 46.026 261.305 46.4792 262.727 46.6588C262.719 46.6874 277.46 46.7472 277.46 46.7472C280.53 46.7472 283.027 49.2074 283.084 52.2634C283.144 55.4191 280.487 57.9991 277.331 57.9991H255.931C254.372 57.9991 253.106 59.2648 253.106 60.8242C253.106 62.3835 254.372 63.6492 255.931 63.6492H277.457C279.507 63.6492 281.428 63.1019 283.084 62.1469C284.806 61.1548 286.24 59.7209 287.232 58.0019C288.19 56.3457 288.735 54.4271 288.735 52.3746C288.735 50.322 288.187 48.4035 287.232 46.7472C286.237 45.0254 284.806 43.5915 283.081 42.5994L283.087 42.5937Z" fill="white"/>
<path d="M402.426 42.5937C400.769 41.6359 398.848 41.0914 396.798 41.0914H383.466C380.438 41.0914 377.995 38.5827 378.103 35.5324C378.206 32.6247 380.683 30.3641 383.594 30.3641H405.048C406.608 30.3641 407.874 29.0983 407.874 27.539C407.874 25.9797 406.608 24.7139 405.048 24.7139H383.466C381.518 24.7139 379.688 25.2185 378.1 26.1051C376.316 27.1 374.837 28.5795 373.841 30.3641C372.952 31.9519 372.448 33.7792 372.448 35.7291C372.448 37.6791 372.952 39.5063 373.841 41.0942C374.837 42.8788 376.316 44.3583 378.1 45.3532C379.303 46.026 380.643 46.4792 382.066 46.6588C382.057 46.6874 396.798 46.7472 396.798 46.7472C399.869 46.7472 402.366 49.2074 402.423 52.2634C402.483 55.4191 399.826 57.9991 396.67 57.9991H375.27C373.71 57.9991 372.445 59.2648 372.445 60.8242C372.445 62.3835 373.71 63.6492 375.27 63.6492H396.796C398.845 63.6492 400.767 63.1019 402.423 62.1469C404.145 61.1548 405.578 59.7209 406.571 58.0019C407.526 56.3457 408.073 54.4271 408.073 52.3746C408.073 50.322 407.526 48.4035 406.571 46.7472C405.576 45.0254 404.145 43.5915 402.42 42.5994L402.426 42.5937Z" fill="white"/>
<path d="M140.468 43.7558C140.256 33.1739 131.61 24.6588 120.98 24.6588H106.94C105.303 24.6588 103.975 25.9873 103.975 27.6236V49.5172C103.975 51.0794 105.241 52.3422 106.8 52.3422C108.359 52.3422 109.625 51.0765 109.625 49.5172V30.3289C109.625 30.3289 109.634 30.3118 109.643 30.3118H120.977C128.529 30.3118 134.666 36.3582 134.815 43.8699C134.971 51.661 128.537 57.9952 120.746 57.9952H101.74C101.74 57.9952 101.729 57.9952 101.726 58.0009C101.549 58.2575 101.364 58.5141 101.176 58.7621C99.7845 60.6009 98.1369 62.2372 96.2869 63.6169C96.2756 63.6254 96.281 63.6454 96.2952 63.6454H120.706C131.67 63.6454 140.681 54.7169 140.462 43.7558H140.468Z" fill="white"/>
<path d="M177.19 39.3272C174.628 39.5466 171.737 40.0056 168.638 40.8722C166.962 41.3398 165.417 41.8728 164.006 42.4316C163.273 42.7224 162.458 42.711 161.737 42.3917C159.849 41.5564 157.532 40.7154 154.821 40.0968C152.477 39.5637 150.311 39.3044 148.412 39.2045C146.753 39.1162 145.359 40.4446 145.359 42.1066V42.118C145.359 43.6118 146.491 44.8633 147.976 45.0086C150.451 45.2481 153.207 45.6814 156.161 46.4226C158.259 46.95 160.178 47.5629 161.911 48.2015C162.518 48.4267 163.182 48.4438 163.798 48.2442C165.335 47.7482 166.959 47.2779 168.667 46.8474C171.908 46.0292 174.976 45.4733 177.818 45.1027C179.263 44.9146 180.341 43.6802 180.341 42.2235C180.341 40.5216 178.884 39.1818 177.188 39.3272H177.19Z" fill="white"/>
<path d="M295.944 45.0086C298.419 45.2481 301.176 45.6814 304.129 46.4226C306.228 46.95 308.146 47.5629 309.879 48.2015C310.487 48.4267 311.151 48.4438 311.766 48.2442C313.303 47.7482 314.928 47.2779 316.635 46.8474C319.876 46.0292 322.944 45.4733 325.786 45.1027C327.231 44.9146 328.309 43.6802 328.309 42.2235C328.309 40.5216 326.853 39.1818 325.156 39.3272C322.594 39.5466 319.703 40.0056 316.604 40.8722C314.928 41.3398 313.383 41.8728 311.972 42.4316C311.239 42.7224 310.424 42.711 309.703 42.3917C307.815 41.5564 305.498 40.7154 302.786 40.0968C300.443 39.5637 298.276 39.3044 296.378 39.2045C294.719 39.1162 293.325 40.4446 293.325 42.1066V42.118C293.325 43.6118 294.457 44.8633 295.942 45.0086H295.944Z" fill="white"/>
</g>
<g opacity="0.63" clip-path="url(#clip1_119_444)" filter="url(#filter0_f_119_444)">
<path d="M96.1754 34.089C92.7633 28.436 86.5629 24.6588 79.4789 24.6588C72.3949 24.6588 66.4368 28.2906 62.9846 33.7612C61.4823 36.1358 60.4817 38.8555 60.1282 41.7717C60.0313 42.5529 59.9828 43.3454 59.9828 44.1521C59.9828 44.9589 60.0313 45.7542 60.1282 46.5325C60.2907 47.8694 60.5871 49.1609 61.0062 50.4009C61.3968 51.5554 62.4715 52.3422 63.6916 52.3422C65.6215 52.3422 66.9927 50.4465 66.3713 48.6192C66.1404 47.9436 65.9608 47.2423 65.8354 46.5239V46.5182C65.7013 45.7485 65.6329 44.9589 65.6329 44.1521C65.6329 43.3454 65.7013 42.5557 65.8354 41.786V41.7803C66.9614 35.2664 72.6401 30.309 79.4761 30.309C87.1814 30.309 93.4162 36.6062 93.3165 44.3346C93.2168 51.9403 86.8763 57.9924 79.2709 57.9924H44.1527C36.4443 57.9924 30.2098 51.6951 30.3095 43.9668C30.4093 36.3611 36.7494 30.309 44.3551 30.309H58.1583C59.7205 30.309 60.9834 29.0432 60.9834 27.4839C60.9834 25.9245 59.7177 24.6588 58.1583 24.6588H44.3978C33.6506 24.6588 24.7421 33.2538 24.6594 44.001C24.5767 54.8338 33.337 63.6425 44.1527 63.6425H79.4789C86.5629 63.6425 92.7633 59.8625 96.1754 54.2123C97.9518 51.2761 98.972 47.8296 98.972 44.1493C98.972 40.469 97.9518 37.0253 96.1754 34.0862V34.089Z" fill="white"/>
<path d="M177.516 24.6588H148.185C146.622 24.6588 145.359 25.9245 145.359 27.4839C145.359 29.0432 146.625 30.309 148.185 30.309H177.516C179.078 30.309 180.341 29.0432 180.341 27.4839C180.341 25.9245 179.075 24.6588 177.516 24.6588Z" fill="white"/>
<path d="M228.875 40.2495H215.644C212.947 40.2495 210.653 38.1513 210.558 35.4603C210.459 32.6323 212.722 30.3118 215.524 30.3118H222.298V32.0251C222.298 33.5873 223.563 34.8502 225.123 34.8502C226.682 34.8502 227.948 33.5845 227.948 32.0251V27.3157C227.948 25.8476 226.759 24.6588 225.291 24.6588H215.527C213.728 24.6588 212.035 25.1064 210.55 25.896C208.671 26.8909 207.129 28.4332 206.134 30.3118C205.347 31.7942 204.9 33.4875 204.9 35.2864C204.9 37.0852 205.344 38.77 206.128 40.2523C206.442 40.8453 206.81 41.404 207.223 41.9228V41.9428C206.37 42.4588 205.589 43.0802 204.9 43.7929C204.278 44.4315 203.725 45.1413 203.263 45.9081C202.189 47.6756 201.573 49.7538 201.573 51.9717C201.573 54.1895 202.192 56.2706 203.266 58.038C204.247 59.6572 205.607 61.0199 207.226 62.0005C208.996 63.0753 211.072 63.691 213.292 63.691H224.823C226.548 63.691 227.948 62.2913 227.948 60.5666V45.9081H228.872C230.434 45.9081 231.697 44.6424 231.697 43.0831C231.697 41.5237 230.431 40.258 228.872 40.258L228.875 40.2495ZM222.298 58.0323H213.295C209.943 58.0323 207.229 55.3184 207.229 51.966C207.229 48.6135 209.943 45.9024 213.295 45.9024H222.298V58.0323Z" fill="white"/>
<path d="M177.525 57.9957H143.661C142.193 60.1508 140.391 62.0608 138.33 63.6458H177.525C179.084 63.6458 180.35 62.3801 180.35 60.8207C180.35 59.2614 179.084 57.9957 177.525 57.9957Z" fill="white"/>
<path d="M296.157 30.3124H325.489C327.051 30.3124 328.314 29.0467 328.314 27.4873C328.314 25.928 327.048 24.6622 325.489 24.6622H296.157C294.595 24.6622 293.333 25.928 293.333 27.4873C293.333 29.0467 294.598 30.3124 296.157 30.3124Z" fill="white"/>
<path d="M365.148 24.6588C363.586 24.6588 362.323 25.9245 362.323 27.4839V53.5139L336.906 25.5796C336.846 25.514 336.78 25.4485 336.715 25.3886C336.706 25.38 336.698 25.3743 336.689 25.3658C336.632 25.3145 336.572 25.2689 336.512 25.2233C336.495 25.209 336.475 25.1947 336.458 25.1833C336.407 25.1463 336.356 25.1121 336.301 25.0807C336.273 25.0636 336.244 25.0465 336.216 25.0294C336.17 25.0038 336.125 24.9809 336.076 24.9553C336.039 24.9353 336.002 24.9182 335.962 24.9011C335.922 24.884 335.882 24.8669 335.842 24.8527C335.794 24.8327 335.749 24.8156 335.697 24.8013C335.666 24.7899 335.632 24.7814 335.597 24.7728C335.537 24.7557 335.477 24.7386 335.417 24.7272C335.395 24.7215 335.369 24.7187 335.346 24.713C335.272 24.6987 335.201 24.6873 335.127 24.6788C335.115 24.6788 335.101 24.6788 335.09 24.6759C335.001 24.6674 334.913 24.6617 334.824 24.6617C334.143 24.6617 333.462 24.9011 332.918 25.3943C332.256 25.9987 331.948 26.8425 332.002 27.672V57.9981H294.57C293.791 60.0478 292.594 61.8922 291.086 63.4287C291.018 63.5 290.949 63.5656 290.881 63.634C290.875 63.6397 290.872 63.6426 290.866 63.6483H334.736C336.347 63.6483 337.656 62.3426 337.656 60.7291V34.7988L363.067 62.7246C363.084 62.7418 363.101 62.7589 363.118 62.7759C363.147 62.8073 363.178 62.8358 363.21 62.8672C363.249 62.9042 363.286 62.9413 363.327 62.9755C363.352 62.9983 363.381 63.0211 363.409 63.0439C363.455 63.0809 363.5 63.1152 363.549 63.1494C363.574 63.1665 363.6 63.1836 363.626 63.2007C363.677 63.2349 363.731 63.2662 363.782 63.2976C363.808 63.3119 363.834 63.3233 363.86 63.3375C363.914 63.366 363.971 63.3946 364.028 63.4174C364.056 63.4287 364.084 63.4401 364.11 63.4515C364.168 63.4744 364.225 63.4972 364.282 63.5143C364.31 63.5228 364.341 63.5314 364.37 63.5399C364.429 63.5571 364.489 63.5742 364.549 63.5856C364.578 63.5913 364.609 63.5969 364.638 63.6026C364.701 63.614 364.766 63.6254 364.829 63.6311C364.854 63.634 364.883 63.6369 364.908 63.6397C364.977 63.6454 365.048 63.6483 365.117 63.6511C365.128 63.6511 365.139 63.6511 365.151 63.6511C365.162 63.6511 365.174 63.6511 365.185 63.6511C365.256 63.6511 365.327 63.6454 365.399 63.6397C365.422 63.6397 365.447 63.6369 365.47 63.634C365.539 63.6254 365.607 63.6169 365.675 63.6026C365.698 63.5969 365.724 63.5941 365.746 63.5884C365.812 63.5742 365.88 63.5571 365.946 63.5371C365.969 63.5314 365.992 63.5228 366.015 63.5171C366.08 63.4972 366.143 63.4715 366.206 63.4458C366.228 63.4373 366.248 63.4287 366.271 63.4202C366.334 63.3946 366.394 63.3632 366.454 63.3318C366.476 63.3204 366.496 63.309 366.519 63.2976C366.576 63.2662 366.633 63.2321 366.688 63.195C366.71 63.1807 366.733 63.1665 366.756 63.1494C366.807 63.1152 366.856 63.0753 366.907 63.0382C366.933 63.0183 366.955 62.9983 366.981 62.9783C367.004 62.9584 367.029 62.9413 367.052 62.9214C367.075 62.9014 367.095 62.8786 367.115 62.8558C367.137 62.833 367.161 62.813 367.181 62.7902C367.224 62.7446 367.266 62.699 367.306 62.6505C367.323 62.6305 367.34 62.6077 367.357 62.5878C367.397 62.5365 367.437 62.4852 367.474 62.431C367.488 62.4111 367.502 62.3883 367.517 62.3654C367.554 62.3113 367.588 62.2542 367.619 62.1972C367.634 62.1716 367.645 62.1488 367.659 62.1231C367.688 62.069 367.716 62.0119 367.739 61.9549C367.754 61.9235 367.765 61.8951 367.776 61.8637C367.796 61.8095 367.819 61.7553 367.836 61.7012C367.847 61.667 367.856 61.6299 367.867 61.5958C367.882 61.5444 367.896 61.4903 367.907 61.4389C367.916 61.4019 367.922 61.362 367.93 61.3249C367.939 61.2707 367.948 61.2194 367.956 61.1653C367.962 61.1282 367.964 61.0883 367.967 61.0513C367.973 60.9942 367.976 60.94 367.976 60.8831C367.976 60.8631 367.978 60.846 367.978 60.826V27.4924C367.978 25.9302 366.713 24.6674 365.153 24.6674L365.148 24.6588Z" fill="white"/>
<path d="M283.087 42.5937C281.431 41.6359 279.51 41.0914 277.46 41.0914H264.127C261.1 41.0914 258.656 38.5827 258.765 35.5324C258.867 32.6247 261.345 30.3641 264.255 30.3641H285.71C287.269 30.3641 288.535 29.0983 288.535 27.539C288.535 25.9797 287.269 24.7139 285.71 24.7139H264.127C262.18 24.7139 260.35 25.2185 258.762 26.1051C256.977 27.1 255.498 28.5795 254.503 30.3641C253.614 31.9519 253.109 33.7792 253.109 35.7291C253.109 37.6791 253.614 39.5063 254.503 41.0942C255.498 42.8788 256.977 44.3583 258.762 45.3532C259.965 46.026 261.305 46.4792 262.727 46.6588C262.719 46.6874 277.46 46.7472 277.46 46.7472C280.53 46.7472 283.027 49.2074 283.084 52.2634C283.144 55.4191 280.487 57.9991 277.331 57.9991H255.931C254.372 57.9991 253.106 59.2648 253.106 60.8242C253.106 62.3835 254.372 63.6492 255.931 63.6492H277.457C279.507 63.6492 281.428 63.1019 283.084 62.1469C284.806 61.1548 286.24 59.7209 287.232 58.0019C288.19 56.3457 288.735 54.4271 288.735 52.3746C288.735 50.322 288.187 48.4035 287.232 46.7472C286.237 45.0254 284.806 43.5915 283.081 42.5994L283.087 42.5937Z" fill="white"/>
<path d="M402.426 42.5937C400.769 41.6359 398.848 41.0914 396.798 41.0914H383.466C380.438 41.0914 377.995 38.5827 378.103 35.5324C378.206 32.6247 380.683 30.3641 383.594 30.3641H405.048C406.608 30.3641 407.874 29.0983 407.874 27.539C407.874 25.9797 406.608 24.7139 405.048 24.7139H383.466C381.518 24.7139 379.688 25.2185 378.1 26.1051C376.316 27.1 374.837 28.5795 373.841 30.3641C372.952 31.9519 372.448 33.7792 372.448 35.7291C372.448 37.6791 372.952 39.5063 373.841 41.0942C374.837 42.8788 376.316 44.3583 378.1 45.3532C379.303 46.026 380.643 46.4792 382.066 46.6588C382.057 46.6874 396.798 46.7472 396.798 46.7472C399.869 46.7472 402.366 49.2074 402.423 52.2634C402.483 55.4191 399.826 57.9991 396.67 57.9991H375.27C373.71 57.9991 372.445 59.2648 372.445 60.8242C372.445 62.3835 373.71 63.6492 375.27 63.6492H396.796C398.845 63.6492 400.767 63.1019 402.423 62.1469C404.145 61.1548 405.578 59.7209 406.571 58.0019C407.526 56.3457 408.073 54.4271 408.073 52.3746C408.073 50.322 407.526 48.4035 406.571 46.7472C405.576 45.0254 404.145 43.5915 402.42 42.5994L402.426 42.5937Z" fill="white"/>
<path d="M140.468 43.7558C140.256 33.1739 131.61 24.6588 120.98 24.6588H106.94C105.303 24.6588 103.975 25.9873 103.975 27.6236V49.5172C103.975 51.0794 105.241 52.3422 106.8 52.3422C108.359 52.3422 109.625 51.0765 109.625 49.5172V30.3289C109.625 30.3289 109.634 30.3118 109.643 30.3118H120.977C128.529 30.3118 134.666 36.3582 134.815 43.8699C134.971 51.661 128.537 57.9952 120.746 57.9952H101.74C101.74 57.9952 101.729 57.9952 101.726 58.0009C101.549 58.2575 101.364 58.5141 101.176 58.7621C99.7845 60.6009 98.1369 62.2372 96.2869 63.6169C96.2756 63.6254 96.281 63.6454 96.2952 63.6454H120.706C131.67 63.6454 140.681 54.7169 140.462 43.7558H140.468Z" fill="white"/>
<path d="M177.19 39.3272C174.628 39.5466 171.737 40.0056 168.638 40.8722C166.962 41.3398 165.417 41.8728 164.006 42.4316C163.273 42.7224 162.458 42.711 161.737 42.3917C159.849 41.5564 157.532 40.7154 154.821 40.0968C152.477 39.5637 150.311 39.3044 148.412 39.2045C146.753 39.1162 145.359 40.4446 145.359 42.1066V42.118C145.359 43.6118 146.491 44.8633 147.976 45.0086C150.451 45.2481 153.207 45.6814 156.161 46.4226C158.259 46.95 160.178 47.5629 161.911 48.2015C162.518 48.4267 163.182 48.4438 163.798 48.2442C165.335 47.7482 166.959 47.2779 168.667 46.8474C171.908 46.0292 174.976 45.4733 177.818 45.1027C179.263 44.9146 180.341 43.6802 180.341 42.2235C180.341 40.5216 178.884 39.1818 177.188 39.3272H177.19Z" fill="white"/>
<path d="M295.944 45.0086C298.419 45.2481 301.176 45.6814 304.129 46.4226C306.228 46.95 308.146 47.5629 309.879 48.2015C310.487 48.4267 311.151 48.4438 311.766 48.2442C313.303 47.7482 314.928 47.2779 316.635 46.8474C319.876 46.0292 322.944 45.4733 325.786 45.1027C327.231 44.9146 328.309 43.6802 328.309 42.2235C328.309 40.5216 326.853 39.1818 325.156 39.3272C322.594 39.5466 319.703 40.0056 316.604 40.8722C314.928 41.3398 313.383 41.8728 311.972 42.4316C311.239 42.7224 310.424 42.711 309.703 42.3917C307.815 41.5564 305.498 40.7154 302.786 40.0968C300.443 39.5637 298.276 39.3044 296.378 39.2045C294.719 39.1162 293.325 40.4446 293.325 42.1066V42.118C293.325 43.6118 294.457 44.8633 295.942 45.0086H295.944Z" fill="white"/>
</g>
<defs>
<filter id="filter0_f_119_444" x="-1.14441e-05" y="-1.14441e-05" width="433.318" height="88.4892" filterUnits="userSpaceOnUse" color-interpolation-filters="sRGB">
<feFlood flood-opacity="0" result="BackgroundImageFix"/>
<feBlend mode="normal" in="SourceGraphic" in2="BackgroundImageFix" result="shape"/>
<feGaussianBlur stdDeviation="12.3294" result="effect1_foregroundBlur_119_444"/>
</filter>
<clipPath id="clip0_119_444">
<rect width="384" height="39.1716" fill="white" transform="translate(24.6588 24.6588)"/>
</clipPath>
<clipPath id="clip1_119_444">
<rect width="384" height="39.1716" fill="white" transform="translate(24.6588 24.6588)"/>
</clipPath>
</defs>
</svg>
