<svg width="26" height="26" viewBox="0 0 26 26" fill="none" xmlns="http://www.w3.org/2000/svg">
<path fill-rule="evenodd" clip-rule="evenodd" d="M16.0334 21.6666C16.0908 21.6666 16.1459 21.6438 16.1866 21.6032C16.2272 21.5625 16.25 21.5074 16.25 21.45C16.2505 21.336 16.2283 21.2231 16.1849 21.1178C16.1415 21.0125 16.0777 20.9167 15.9972 20.8362C15.9166 20.7556 15.8209 20.6918 15.7155 20.6484C15.6102 20.605 15.4973 20.5829 15.3834 20.5833H10.6167C10.3869 20.5833 10.1664 20.6746 10.0039 20.8371C9.84135 20.9997 9.75004 21.2201 9.75004 21.45C9.75004 21.5691 9.84754 21.6666 9.96671 21.6666H16.0334ZM10.6167 18.4166H15.3834C16.1879 18.4166 16.9594 18.7362 17.5283 19.3051C18.0971 19.8739 18.4167 20.6455 18.4167 21.45C18.4167 22.0821 18.1656 22.6883 17.7186 23.1352C17.2717 23.5822 16.6655 23.8333 16.0334 23.8333H9.96671C9.33461 23.8333 8.7284 23.5822 8.28144 23.1352C7.83447 22.6883 7.58337 22.0821 7.58337 21.45C7.58337 21.0516 7.66183 20.6572 7.81427 20.2892C7.96671 19.9211 8.19015 19.5867 8.47182 19.3051C8.75349 19.0234 9.08788 18.8 9.4559 18.6475C9.82392 18.4951 10.2184 18.4166 10.6167 18.4166ZM14.0834 15.1666V18.4166H11.9167V15.1666H14.0834Z" fill="#E61707"/>
<path fill-rule="evenodd" clip-rule="evenodd" d="M10.4606 4.33659C9.76438 4.30837 9.06957 4.42036 8.41746 4.66593C7.94513 4.84901 7.58329 5.44809 7.58329 6.48592V10.2158C7.58329 11.6188 8.40121 12.844 9.59829 13.7681C10.8181 14.7063 12.2167 15.1667 13 15.1667V17.3333C11.6176 17.3333 9.76621 16.6335 8.27663 15.483C6.76429 14.3184 5.41663 12.5266 5.41663 10.2158V6.48484C5.41663 5.14368 5.88896 3.32151 7.63529 2.64551C8.5614 2.29411 9.54886 2.1331 10.5386 2.17209L10.4606 4.33659Z" fill="#E61707"/>
<path fill-rule="evenodd" clip-rule="evenodd" d="M15.6613 4.3333C16.4391 4.3333 17.1119 4.4828 17.634 4.68647C18.0706 4.85655 18.4162 5.41555 18.4162 6.42197V10.2136C18.4162 11.6198 17.5961 12.8483 16.4229 13.7746C15.2236 14.7236 13.8944 15.1666 13.2617 15.1666V17.3333C14.5335 17.3333 16.3232 16.6161 17.7662 15.4743C19.2363 14.313 20.5829 12.5233 20.5829 10.2158V6.42414C20.5829 5.12305 20.1344 3.33664 18.4216 2.6693C17.5408 2.33151 16.6046 2.16104 15.6613 2.16664H10.2912V4.3333H15.6613ZM2.25502 7.6223C2.66777 5.7633 4.42494 4.58897 6.50386 4.93564C6.7873 4.98276 7.04041 5.14054 7.20751 5.37428C7.37461 5.60802 7.44202 5.89857 7.3949 6.18201C7.34778 6.46545 7.18999 6.71856 6.95625 6.88567C6.72251 7.05277 6.43196 7.12017 6.14852 7.07305C5.12261 6.90189 4.51594 7.43597 4.36969 8.09139C4.21802 8.7728 4.49319 10.0306 6.30886 11.2287C6.48977 11.3479 6.74002 11.4216 7.04119 11.4216C7.32851 11.4216 7.60406 11.5357 7.80722 11.7389C8.01039 11.942 8.12452 12.2176 8.12452 12.5049C8.12452 12.7922 8.01039 13.0678 7.80722 13.2709C7.60406 13.4741 7.32851 13.5882 7.04119 13.5882C6.40419 13.5882 5.71736 13.4344 5.11502 13.0368C2.81836 11.5212 1.84769 9.45639 2.25502 7.6223Z" fill="#E61707"/>
<path fill-rule="evenodd" clip-rule="evenodd" d="M23.7445 7.62235C23.3317 5.76335 21.5746 4.58901 19.4957 4.93568C19.3553 4.95901 19.2209 5.00976 19.1002 5.08502C18.9795 5.16028 18.8748 5.25859 18.792 5.37433C18.6249 5.60807 18.5575 5.89862 18.6046 6.18206C18.6517 6.46549 18.8095 6.71861 19.0433 6.88571C19.277 7.05281 19.5676 7.12022 19.851 7.0731C20.8769 6.90193 21.4836 7.43601 21.6298 8.09143C21.7815 8.77285 21.5063 10.0306 19.6907 11.2288C19.5097 11.3479 19.2595 11.4216 18.9583 11.4216C18.671 11.4216 18.3955 11.5357 18.1923 11.7389C17.9891 11.9421 17.875 12.2176 17.875 12.5049C17.875 12.7922 17.9891 13.0678 18.1923 13.271C18.3955 13.4741 18.671 13.5883 18.9583 13.5883C19.5953 13.5883 20.2822 13.4344 20.8834 13.0368C23.1801 11.5213 24.1529 9.45643 23.7445 7.62235ZM6.5 22.75C6.5 22.4627 6.61414 22.1871 6.8173 21.984C7.02047 21.7808 7.29602 21.6667 7.58333 21.6667H18.4167C18.704 21.6667 18.9795 21.7808 19.1827 21.984C19.3859 22.1871 19.5 22.4627 19.5 22.75C19.5 23.0373 19.3859 23.3129 19.1827 23.516C18.9795 23.7192 18.704 23.8333 18.4167 23.8333H7.58333C7.29602 23.8333 7.02047 23.7192 6.8173 23.516C6.61414 23.3129 6.5 23.0373 6.5 22.75Z" fill="#E61707"/>
</svg>
