<svg width="48" height="58" viewBox="0 0 48 58" fill="none" xmlns="http://www.w3.org/2000/svg">
<path d="M23.1954 0.0926967C19.7294 0.455291 17.1699 1.46842 13.288 4.00657C12.6908 4.40116 10.7179 5.6809 8.91555 6.84335C4.90568 9.44549 4.41511 9.80809 3.50863 10.7679C1.20509 13.2101 0 16.4841 0 20.2913C0 22.211 0.181297 23.3946 0.693195 25.0051C1.48237 27.4579 2.42086 29.0042 4.45777 31.2118L5.48158 32.321L4.07386 33.2487C2.02626 34.5925 1.19443 35.563 0.618542 37.2585C-0.149303 39.5621 0.405252 42.1217 2.09026 43.9773C4.8737 47.0592 10.4406 52.8821 11.1658 53.4579C16.1674 57.4893 23.0034 58.2463 28.6769 55.399C29.85 54.8125 40.8238 47.7418 42.0077 46.8141C46.1241 43.572 48.4169 38.2397 47.9371 33.0141C47.6065 29.4095 46.2521 26.3594 43.7673 23.5974C42.9035 22.6376 42.9035 22.6376 43.1487 22.4774C44.5457 21.5497 45.3029 20.7393 45.8895 19.5341C46.4013 18.4783 46.572 17.6039 46.5081 16.2388C46.4547 14.9377 46.2095 14.0952 45.5696 13.0394C45.1322 12.3036 38.5202 5.265 37.5178 4.44382C35.7794 3.0361 33.4974 1.75636 31.4923 1.0525C28.9328 0.167344 25.8828 -0.184581 23.1954 0.0926967ZM28.0477 4.65711C30.6499 5.19035 32.8574 6.24612 34.7983 7.87781C35.7902 8.70964 41.6983 15.0444 41.965 15.5563C42.3809 16.3881 42.1676 17.6785 41.4958 18.2864C41.3677 18.4037 40.3546 19.0969 39.2348 19.8221C38.1257 20.5366 36.4515 21.6244 35.5235 22.2323C34.6063 22.8294 33.6999 23.4054 33.5187 23.4906C33.1347 23.6934 32.4842 23.7252 32.1641 23.5548C32.0363 23.4906 29.7008 21.0484 26.9599 18.1264C18.7589 9.39217 18.9935 9.63744 17.9804 8.95491C17.4685 8.61366 16.722 8.19773 16.3274 8.02711L15.6022 7.72849L16.6473 7.03531C18.8762 5.57427 20.8918 4.80641 23.3979 4.4545C24.4858 4.30518 26.8212 4.40116 28.0477 4.65711ZM14.0345 11.845C15.037 12.2076 15.8262 12.7088 16.5407 13.434C16.8713 13.7646 17.1272 14.0632 17.0952 14.0846C17.0739 14.1059 16.3061 14.5965 15.3996 15.183C14.4185 15.8122 13.4906 16.5054 13.1067 16.8787C11.9976 17.9984 11.4217 19.3955 11.4217 20.9845C11.4217 22.7228 11.9443 23.8639 13.544 25.5703C14.3225 26.4021 19.5801 32.0222 20.5719 33.078C23.0034 35.6696 26.3414 39.2636 26.352 39.3168C26.3733 39.3488 25.3922 40.0206 24.1765 40.8099C21.7237 42.3989 21.457 42.4949 20.7639 42.1003C20.5399 41.9723 19.3028 40.7245 18.0231 39.3383C16.7327 37.9519 13.7146 34.7203 11.3044 32.1395C8.89421 29.5694 6.71866 27.1912 6.4627 26.8608C5.78017 25.9754 4.99101 24.2799 4.68174 23.064C4.18049 21.0912 4.24448 18.777 4.84169 16.932C5.5349 14.8204 6.88928 13.1887 8.68092 12.3036C10.0033 11.6531 10.7818 11.4824 12.2002 11.5357C13.0534 11.5677 13.4906 11.6424 14.0345 11.845ZM22.8114 20.0994C29.5728 27.33 29.562 27.3192 31.1191 27.7992C32.4203 28.2043 34.2226 28.0657 35.3743 27.4792C35.6195 27.3513 36.5793 26.754 37.4965 26.1461L39.1709 25.0477L39.9921 25.9223C41.9117 27.991 42.9141 29.772 43.4046 32.0222C43.6819 33.2913 43.6606 35.6801 43.362 36.8961C42.7328 39.4769 41.389 41.6843 39.5228 43.1988C39.1281 43.5186 37.8058 44.4358 36.5688 45.2357L34.3291 46.686L34.2652 45.3209C34.1692 43.3694 33.7639 41.9296 32.8467 40.3086C32.2709 39.2849 31.727 38.6344 28.9862 35.6909C27.5785 34.1979 24.0805 30.444 21.2011 27.3619C17.5112 23.4159 15.9222 21.6457 15.8368 21.379C15.6769 20.8992 15.8262 20.27 16.1674 19.9501C16.3061 19.8327 17.1059 19.2782 17.9591 18.7343C18.8122 18.1904 19.6227 17.6572 19.7614 17.5505C19.9 17.4439 20.0706 17.3586 20.1346 17.3586C20.1986 17.3586 21.4037 18.5956 22.8114 20.0994ZM12.8294 40.17C15.1756 42.6869 17.3512 44.969 17.6498 45.2357C18.8762 46.3448 20.8066 46.8888 22.3955 46.59C23.43 46.3874 24.1552 46.0142 26.6613 44.3932L29.2101 42.7401L29.4021 43.1988C30.3087 45.2783 29.9354 47.9017 28.453 49.8747C27.5785 51.0372 26.4161 51.7943 24.763 52.2743C21.169 53.3088 17.3192 52.6049 14.2691 50.3334C13.4586 49.7361 12.6055 48.851 6.18542 41.9936C4.8737 40.5966 4.73505 40.3725 4.66041 39.5834C4.58576 38.869 4.8097 38.2183 5.30028 37.7491C5.6202 37.4398 8.32899 35.6057 8.48897 35.5949C8.52097 35.5949 10.4726 37.6531 12.8294 40.17Z" fill="white"/>
</svg>
