<svg width="462" height="289" viewBox="0 0 462 289" fill="none" xmlns="http://www.w3.org/2000/svg">
<path opacity="0.5" d="M559.949 -41.7273V20.0256L529.295 -0.372299V-41.7273H528.732L528.828 -41.6636V-0.68449L498.174 -21.0824V-41.7273H497.708V-21.0824L467.054 -0.68449V-41.7273H279.86V-21.0824L249.206 -0.68449V-41.7273H248.644L218.086 -21.3931V-41.7273H217.619V-21.0824L186.965 -0.68449V-41.7273H0V20.5553H92.8011L62.1475 40.9532H0V41.3275L0.0956978 41.2638H61.6784L31.0247 61.6617H0V61.9724H31.0247L61.6784 82.3703H0V82.6809H61.6784L31.0247 103.079H0V103.389H30.5579L0 123.725V124.1H61.6784L31.0247 144.498H0V331.035H186.961V289.992L217.614 310.39V331.035H218.081V310.39L248.735 289.992V330.971L248.639 331.035H249.202V289.681L279.855 269.283V331.036H467.049V310.391L467.145 310.328L467.049 310.264V289.993L497.703 310.391V331.036H498.17V310.702L528.728 331.036H529.29V289.993L559.944 310.391V331.036H560.177V144.499H467.376L498.03 124.101H560.175V123.727L560.079 123.791H498.497L529.15 103.393H560.175V103.082H529.15L498.497 82.684H560.175V82.3734H498.497L529.15 61.9755H560.175V61.6648H529.617L560.175 41.3306V40.9563H498.497L529.15 20.5584H560.175V-41.7273H559.942H559.949ZM497.939 -20.7982L528.826 -0.244946V20.2446H467.049V-0.244946L497.936 -20.7982H497.939ZM529.293 0.0656929L559.617 20.2446H529.293V0.0656929ZM342.43 310.172L311.776 289.774H373.359L404.013 310.172H342.43ZM218.413 268.754L249.066 248.356H311.116L341.769 268.754H218.413ZM155.509 310.172H93.9262L124.58 289.774H186.162L155.509 310.172ZM31.3539 186.137L62.0075 165.739V206.718L31.3539 227.116V186.137ZM92.7988 144.81L62.4743 164.989V144.81H92.7988ZM93.5971 103.172V61.8823L124.251 41.4844V123.882L93.5971 144.28V103.301L93.6928 103.237L93.5971 103.174V103.172ZM186.165 -0.46394H124.582L93.9285 -20.8619H155.511L186.165 -0.46394ZM311.309 -20.8619H372.892L342.238 -0.46394H280.656L311.309 -20.8619ZM466.723 165.52L497.376 185.918H435.794L405.14 165.52H466.723ZM435.369 186.073L404.482 206.626H373.69V165.518H404.482L435.369 186.072V186.073ZM466.587 289.683V309.953L405.142 269.066H466.587V289.555L466.492 289.619L466.587 289.683ZM342.432 268.754L311.545 248.2L342.432 227.647H373.224V268.755H342.432V268.754ZM311.118 248.045H249.535L280.189 227.647H341.772L311.118 248.045ZM62.3412 289.464L31.6876 269.066H155.044L124.391 289.464H62.3412ZM93.1326 227.866V268.754H31.6876L93.1326 227.866ZM280.324 0.0656929L310.649 20.2446H280.324V0.0656929ZM404.479 -0.153301L435.133 20.2446H311.776L342.43 -0.153301H404.479ZM466.585 61.8823V103.172L435.931 123.57V41.1722L466.585 20.7743V61.7534L466.489 61.8171L466.585 61.8807V61.8823ZM342.897 227.335L373.221 207.156V227.335H342.897ZM218.413 227.335L249.066 206.937H280.324H372.892L342.238 227.335H218.413ZM155.84 268.754V248.575L186.165 268.754H155.84ZM186.494 269.064V289.243L156.169 269.064H186.494ZM155.373 268.754H93.5971V248.264L124.484 227.711L155.371 248.264V268.754H155.373ZM155.84 61.8823L186.494 41.4844V82.3718V123.57L155.84 103.172V61.8823ZM217.85 20.6189L217.946 20.5553H311.116L341.769 40.9532H217.943L187.29 20.5553H217.752L217.848 20.6189H217.85ZM404.811 144.279V103.299L435.464 82.9015V123.881L404.811 144.279ZM124.253 227.425L93.5994 247.823V165.736L124.253 186.134V227.423V227.425ZM123.924 144.808L93.5994 164.987V144.808H123.924ZM93.6974 165.361L124.255 145.027V185.696L93.6974 165.361ZM186.965 144.498V103.61L217.619 124.008V165.298L186.965 185.696V144.498ZM217.29 40.9516H186.965V20.7727L217.29 40.9516ZM186.965 41.2623H217.757L248.644 61.8155L217.757 82.3687H186.965V41.2607V41.2623ZM404.346 103.17L373.693 123.568V61.8807L373.788 61.8171L373.693 61.7534V41.4828L404.346 61.8807V103.17ZM404.346 144.279L373.788 123.944L404.346 103.61V144.279ZM373.226 206.406L342.572 186.008V103.61L373.13 123.944L373.226 124.008V144.498V206.404V206.406ZM249.071 61.9724H311.12L341.774 82.3703H311.314L311.218 82.3066L311.123 82.3703H279.865H218.42L249.073 61.9724H249.071ZM342.105 144.279L311.452 123.881V82.9015L342.105 103.299V144.279ZM249.209 103.299L279.862 82.9015V103.17L279.767 103.234L279.862 103.298V144.651V165.296L249.209 185.694V103.296V103.299ZM279.533 82.6809L249.209 102.86V82.6809H279.533ZM279.862 165.737V206.625H218.417L279.862 165.737ZM280.329 82.6809H310.654L280.329 102.86V82.6809ZM310.983 82.8999V123.568L280.425 103.234L310.983 82.8999ZM311.781 82.6809H342.241L342.337 82.7446L342.432 82.6809H373.224V123.568L311.779 82.6809H311.781ZM342.901 82.3703L373.226 62.1914V82.3703H342.901ZM342.337 82.3066L311.779 61.9724H372.894L342.337 82.3066ZM248.739 82.6809V103.17L217.852 123.724L186.965 103.17V82.6809H248.742H248.739ZM218.086 124.008L248.739 103.61V144.589L218.086 164.987V124.008ZM248.739 145.027V186.006L218.086 206.404V165.425L248.739 145.027ZM217.619 206.404L187.061 186.07L217.619 165.736V206.404ZM217.29 206.623H186.965V186.444L217.29 206.623ZM280.329 144.651V103.608L310.983 124.006V165.296L280.329 185.694V144.651ZM311.449 124.317L342.103 144.715V185.694L311.449 165.296V124.317ZM373.226 20.5522V61.4396L311.781 20.5522H373.226ZM372.897 61.6602H311.314L280.66 41.2623H342.243L372.897 61.6602ZM280 41.2623L310.654 61.6602H249.071L218.417 41.2623H280ZM280.329 186.135L311.216 165.582L342.103 186.135V206.625H280.327V186.135H280.329ZM342.572 186.446L372.897 206.625H342.572V186.446ZM373.693 124.319L404.017 144.498H373.693V124.319ZM435.469 82.4604L404.815 102.858V61.8792L435.469 41.4813V82.4604ZM404.582 61.5965L373.695 41.0433V20.5537H435.471V41.0433L404.584 61.5965H404.582ZM186.501 40.7326L156.176 20.5537H186.501V40.7326ZM155.847 20.7743L186.405 41.1085L155.847 61.4427V20.7743ZM124.727 227.425V186.446L155.38 206.844V247.823L124.727 227.425ZM155.38 206.406L124.727 186.008V145.029L155.38 165.427V206.406ZM125.056 144.808H186.501V185.696L125.056 144.808ZM217.759 206.935L217.855 206.999L217.95 206.935H248.41L186.965 247.823V206.935H217.757H217.759ZM405.147 144.498L466.592 103.61V144.498H405.147ZM435.938 40.7326V20.5537H466.263L435.938 40.7326ZM311.221 20.1794L280.663 -0.154858H341.779L311.221 20.1794ZM156.179 20.2431L186.503 0.0641441V20.2431H156.179ZM155.616 20.1794L125.058 -0.154858H186.174L155.616 20.1794ZM155.054 20.5537L93.6087 61.4412V20.5537H155.054ZM155.383 20.7727V61.7518L124.729 82.1497V41.1706L155.383 20.7727ZM124.729 82.5893L155.383 62.1914V103.17L124.729 123.568V82.5893ZM155.616 103.453L186.503 124.006V144.496H124.727V124.006L155.614 103.453H155.616ZM124.262 144.496H93.9378L124.262 124.317V144.496ZM155.616 269.125L186.174 289.459H125.058L155.616 269.125ZM155.85 248.132V165.736L186.408 186.07L186.503 186.134V206.934V248.132L186.408 248.196L186.503 248.259V268.53L155.85 248.132ZM187.302 248.04L217.955 227.642H279.538L248.884 248.04H187.302ZM248.417 248.351L217.859 268.685L187.302 248.351H248.417ZM373.7 268.749V227.861L435.145 268.749H373.7ZM374.029 227.641H435.612L466.265 248.039H404.682L374.029 227.641ZM374.029 227.33L404.587 206.996L435.145 227.33H374.029ZM373.7 227.111V206.932H404.024L373.7 227.111ZM373.7 165.203V145.024L404.024 165.203H373.7ZM466.585 -21.1741H436.26L466.585 -41.353V-21.1741ZM466.585 -20.8634V20.2446H435.794L404.907 -0.30862L435.794 -20.8619H466.585V-20.8634ZM404.479 -0.465492H342.897L373.55 -20.8634H435.133L404.479 -0.465492ZM186.961 20.2431V0.0641441L217.285 20.2431H186.961ZM93.268 -20.8634L123.922 -0.465492H62.3389L31.6853 -20.8634H93.268ZM62.3389 -0.154858H124.388L155.042 20.2431H31.6853L62.3389 -0.154858ZM93.1302 145.029V165.299L93.0346 165.363L93.1302 165.427V227.425L62.4766 247.823V165.425L93.1302 145.027V145.029ZM62.0098 207.156V248.135L31.3562 268.533V227.554L62.0098 207.156ZM30.8894 268.533L0.329107 248.2L30.887 227.866V268.535L30.8894 268.533ZM61.9141 289.617L31.0271 310.171H0.233409V269.063H31.0247L61.9118 289.616L61.9141 289.617ZM62.3412 289.773H123.924L93.2703 310.171H31.6853L62.3389 289.773H62.3412ZM186.963 248.575L217.288 268.754H186.963V248.575ZM280.327 269.283L310.651 289.462H280.327V269.283ZM280.656 269.064H373.224H404.482L435.135 289.462H311.312L280.658 269.064H280.656ZM374.02 289.773H435.602L466.256 310.171H404.673L374.02 289.773ZM466.256 310.481L435.698 330.816L405.14 310.481H466.256ZM498.037 268.752L497.941 268.688L497.845 268.752H435.796L405.142 248.354H528.968L559.622 268.752H498.039H498.037ZM466.916 248.043L436.263 227.646H497.845L528.499 248.043H466.916ZM497.845 227.335H435.796L405.142 206.937H528.499L497.845 227.335ZM405.142 206.626L435.796 186.228H497.845L528.499 206.626H405.14H405.142ZM498.506 186.228H559.622L529.064 206.563L498.506 186.228ZM498.039 185.918L467.385 165.52H528.968L559.622 185.918H498.039ZM404.675 165.209L374.022 144.811H404.484L404.58 144.875L404.675 144.811H497.845L528.499 165.209H404.675ZM435.604 -21.1725H311.779L342.43 -41.572H466.256L435.602 -21.1741L435.604 -21.1725ZM341.769 -41.572L280.324 -0.68449V-41.572H341.769ZM279.858 -0.373856L279.762 -0.310173L279.858 -0.246494V20.2431H218.413L279.858 -20.6444V-0.373856ZM248.737 -41.353V-0.373856L218.084 20.0241V-20.9535L248.737 -41.353ZM217.617 -20.6444V20.0241L187.059 -0.310173L217.617 -20.6444ZM186.494 -41.572V-0.68449L125.049 -41.572H186.494ZM124.388 -41.572L155.042 -21.1741H31.2185L0.562516 -41.572H124.386H124.388ZM30.5579 -21.1741H0.233409V-41.353L30.5579 -21.1741ZM0.233409 -20.8634H31.0247L61.9118 -0.310173L31.0247 20.2431H0.233409V-20.8634ZM93.1302 20.7743V40.9532H62.8057L93.1302 20.7743ZM62.3389 41.2638H93.1302V82.3718H62.3389L62.2432 82.3082L31.4519 61.8186L62.3389 41.2654V41.2638ZM93.1302 82.6825V102.861L62.8057 82.6825H93.1302ZM62.2432 82.7462L92.8011 103.08H31.6853L62.2432 82.7462ZM0.562516 123.791L31.2161 103.393H92.7988L62.1452 123.791H0.562516ZM93.1302 103.612V144.499H31.6853L93.1302 103.612ZM62.0098 144.81V165.299L31.1228 185.853L0.233409 165.299V144.81H62.0098ZM0.233409 165.739L30.887 186.137V227.427L0.233409 247.824V165.737V165.739ZM30.5579 268.754H0.233409V248.575L30.5579 268.754ZM0.233409 310.483H30.5579L0.233409 330.662V310.483ZM31.2185 310.483H155.042L124.388 330.881H0.562516L31.2161 310.483H31.2185ZM125.049 330.881L186.494 289.993V330.881H125.049ZM217.85 310.107L187.059 289.617L186.963 289.554V269.064H217.754L217.85 269.128L217.946 269.064H248.737V289.554L217.85 310.107ZM249.204 269.064H279.528L249.204 289.243V269.064ZM280.324 289.773H311.116L342.003 310.326L311.116 330.879H280.324V289.771V289.773ZM311.776 330.881L342.43 310.483H404.479L435.133 330.881H311.774H311.776ZM436.26 330.881L466.585 310.702V330.881H436.26ZM467.052 269.064H497.376L467.052 289.243V269.064ZM467.147 289.617L497.705 269.283V309.952L467.147 289.617ZM528.826 330.66L498.172 310.262V269.283L528.826 289.681V330.66ZM559.946 309.952L498.501 269.064H559.946V309.952ZM559.946 268.535L529.622 248.356H559.946V268.535ZM529.155 248.045L498.268 227.492L529.155 206.939H559.946V248.047H529.155V248.045ZM559.946 206.626H529.622L559.946 186.447V206.626ZM498.501 144.81H559.946V185.697L498.501 144.81ZM467.049 144.279V124.1H497.374L467.049 144.279ZM497.841 123.789H467.049V82.6809H497.841L497.936 82.7446L528.728 103.234L497.841 123.787V123.789ZM467.049 82.3703V62.1914L497.374 82.3703H467.049ZM497.936 82.3066L467.378 61.9724H528.494L497.936 82.3066ZM559.615 41.2638L528.961 61.6617H467.378L498.032 41.2638H559.615ZM467.047 61.4427V20.5553H528.492L467.047 61.4427Z" fill="url(#paint0_radial_119_73)"/>
<defs>
<radialGradient id="paint0_radial_119_73" cx="0" cy="0" r="1" gradientUnits="userSpaceOnUse" gradientTransform="translate(271.796 144.654) scale(218.185 145.188)">
<stop stop-color="#56221F"/>
<stop offset="0.21" stop-color="#B52F25"/>
<stop offset="0.43" stop-color="#E61707"/>
<stop offset="1" stop-color="#E61707" stop-opacity="0"/>
</radialGradient>
</defs>
</svg>
