<svg width="581" height="271" viewBox="0 0 581 271" fill="none" xmlns="http://www.w3.org/2000/svg">
<g style="mix-blend-mode:soft-light" opacity="0.7">
<path d="M18.3529 0.111328H0.111328V19.0919M18.3529 0.111328V19.0919M18.3529 0.111328H36.5944M18.3529 19.0919H0.111328M18.3529 19.0919V38.0725M18.3529 19.0919H36.5944M0.111328 19.0919V38.0725M18.3529 38.0725H0.111328M18.3529 38.0725V57.0531M18.3529 38.0725H36.5944M0.111328 38.0725V57.0531M18.3529 57.0531H0.111328M18.3529 57.0531V76.0337M18.3529 57.0531H36.5944M0.111328 57.0531V76.0337M18.3529 76.0337H0.111328M18.3529 76.0337V95.0142M18.3529 76.0337H36.5944M0.111328 76.0337V95.0142M18.3529 95.0142H0.111328M18.3529 95.0142V113.995M18.3529 95.0142H36.5944M0.111328 95.0142V113.995M18.3529 113.995H0.111328M18.3529 113.995V132.975M18.3529 113.995H36.5944M0.111328 113.995V132.975M18.3529 132.975H0.111328M18.3529 132.975V151.956M18.3529 132.975H36.5944M0.111328 132.975V151.956M18.3529 151.956H0.111328M18.3529 151.956V170.937M18.3529 151.956H36.5944M0.111328 151.956V170.937M18.3529 170.937H0.111328M18.3529 170.937V189.917M18.3529 170.937H36.5944M0.111328 170.937V189.917M18.3529 189.917H0.111328M18.3529 189.917V208.898M18.3529 189.917H36.5944M0.111328 189.917V208.898M18.3529 208.898H0.111328M18.3529 208.898V227.878M18.3529 208.898H36.5944M0.111328 208.898V227.878M18.3529 227.878H0.111328M18.3529 227.878V246.859M18.3529 227.878H36.5944M0.111328 227.878V246.859M18.3529 246.859H0.111328M18.3529 246.859V265.839M18.3529 246.859H36.5944M0.111328 246.859V265.839M18.3529 265.839H0.111328M18.3529 265.839V284.82M18.3529 265.839H36.5944M0.111328 265.839V284.82M18.3529 284.82H0.111328M18.3529 284.82V303.801M18.3529 284.82H36.5944M0.111328 284.82V303.801M18.3529 303.801H0.111328M18.3529 303.801V322.781M18.3529 303.801H36.5944M0.111328 303.801V322.781M18.3529 322.781H0.111328M18.3529 322.781V341.762M18.3529 322.781H36.5944M0.111328 322.781V341.762M18.3529 341.762H0.111328M18.3529 341.762V360.742M18.3529 341.762H36.5944M0.111328 341.762V360.742M18.3529 360.742H0.111328M18.3529 360.742V379.723M18.3529 360.742H36.5944M0.111328 360.742V379.723H18.3529M18.3529 379.723H36.5944M36.5944 0.111328V19.0919M36.5944 0.111328H54.836M36.5944 19.0919V38.0725M36.5944 19.0919H54.836M36.5944 38.0725V57.0531M36.5944 38.0725H54.836M36.5944 57.0531V76.0337M36.5944 57.0531H54.836M36.5944 76.0337V95.0142M36.5944 76.0337H54.836M36.5944 95.0142V113.995M36.5944 95.0142H54.836M36.5944 113.995V132.975M36.5944 113.995H54.836M36.5944 132.975V151.956M36.5944 132.975H54.836M36.5944 151.956V170.937M36.5944 151.956H54.836M36.5944 170.937V189.917M36.5944 170.937H54.836M36.5944 189.917V208.898M36.5944 189.917H54.836M36.5944 208.898V227.878M36.5944 208.898H54.836M36.5944 227.878V246.859M36.5944 227.878H54.836M36.5944 246.859V265.839M36.5944 246.859H54.836M36.5944 265.839V284.82M36.5944 265.839H54.836M36.5944 284.82V303.801M36.5944 284.82H54.836M36.5944 303.801V322.781M36.5944 303.801H54.836M36.5944 322.781V341.762M36.5944 322.781H54.836M36.5944 341.762V360.742M36.5944 341.762H54.836M36.5944 360.742V379.723M36.5944 360.742H54.836M36.5944 379.723H54.836M54.836 0.111328V19.0919M54.836 0.111328H73.0775M54.836 19.0919V38.0725M54.836 19.0919H73.0775M54.836 38.0725V57.0531M54.836 38.0725H73.0775M54.836 57.0531V76.0337M54.836 57.0531H73.0775M54.836 76.0337V95.0142M54.836 76.0337H73.0775M54.836 95.0142V113.995M54.836 95.0142H73.0775M54.836 113.995V132.975M54.836 113.995H73.0775M54.836 132.975V151.956M54.836 132.975H73.0775M54.836 151.956V170.937M54.836 151.956H73.0775M54.836 170.937V189.917M54.836 170.937H73.0775M54.836 189.917V208.898M54.836 189.917H73.0775M54.836 208.898V227.878M54.836 208.898H73.0775M54.836 227.878V246.859M54.836 227.878H73.0775M54.836 246.859V265.839M54.836 246.859H73.0775M54.836 265.839V284.82M54.836 265.839H73.0775M54.836 284.82V303.801M54.836 284.82H73.0775M54.836 303.801V322.781M54.836 303.801H73.0775M54.836 322.781V341.762M54.836 322.781H73.0775M54.836 341.762V360.742M54.836 341.762H73.0775M54.836 360.742V379.723M54.836 360.742H73.0775M54.836 379.723H73.0775M73.0775 0.111328V19.0919M73.0775 0.111328H91.319M73.0775 19.0919V38.0725M73.0775 19.0919H91.319M73.0775 38.0725V57.0531M73.0775 38.0725H91.319M73.0775 57.0531V76.0337M73.0775 57.0531H91.319M73.0775 76.0337V95.0142M73.0775 76.0337H91.319M73.0775 95.0142V113.995M73.0775 95.0142H91.319M73.0775 113.995V132.975M73.0775 113.995H91.319M73.0775 132.975V151.956M73.0775 132.975H91.319M73.0775 151.956V170.937M73.0775 151.956H91.319M73.0775 170.937V189.917M73.0775 170.937H91.319M73.0775 189.917V208.898M73.0775 189.917H91.319M73.0775 208.898V227.878M73.0775 208.898H91.319M73.0775 227.878V246.859M73.0775 227.878H91.319M73.0775 246.859V265.839M73.0775 246.859H91.319M73.0775 265.839V284.82M73.0775 265.839H91.319M73.0775 284.82V303.801M73.0775 284.82H91.319M73.0775 303.801V322.781M73.0775 303.801H91.319M73.0775 322.781V341.762M73.0775 322.781H91.319M73.0775 341.762V360.742M73.0775 341.762H91.319M73.0775 360.742V379.723M73.0775 360.742H91.319M73.0775 379.723H91.319M91.319 0.111328V19.0919M91.319 0.111328H109.561M91.319 19.0919V38.0725M91.319 19.0919H109.561M91.319 38.0725V57.0531M91.319 38.0725H109.561M91.319 57.0531V76.0337M91.319 57.0531H109.561M91.319 76.0337V95.0142M91.319 76.0337H109.561M91.319 95.0142V113.995M91.319 95.0142H109.561M91.319 113.995V132.975M91.319 113.995H109.561M91.319 132.975V151.956M91.319 132.975H109.561M91.319 151.956V170.937M91.319 151.956H109.561M91.319 170.937V189.917M91.319 170.937H109.561M91.319 189.917V208.898M91.319 189.917H109.561M91.319 208.898V227.878M91.319 208.898H109.561M91.319 227.878V246.859M91.319 227.878H109.561M91.319 246.859V265.839M91.319 246.859H109.561M91.319 265.839V284.82M91.319 265.839H109.561M91.319 284.82V303.801M91.319 284.82H109.561M91.319 303.801V322.781M91.319 303.801H109.561M91.319 322.781V341.762M91.319 322.781H109.561M91.319 341.762V360.742M91.319 341.762H109.561M91.319 360.742V379.723M91.319 360.742H109.561M91.319 379.723H109.561M109.561 0.111328V19.0919M109.561 0.111328H127.802M109.561 19.0919V38.0725M109.561 19.0919H127.802M109.561 38.0725V57.0531M109.561 38.0725H127.802M109.561 57.0531V76.0337M109.561 57.0531H127.802M109.561 76.0337V95.0142M109.561 76.0337H127.802M109.561 95.0142V113.995M109.561 95.0142H127.802M109.561 113.995V132.975M109.561 113.995H127.802M109.561 132.975V151.956M109.561 132.975H127.802M109.561 151.956V170.937M109.561 151.956H127.802M109.561 170.937V189.917M109.561 170.937H127.802M109.561 189.917V208.898M109.561 189.917H127.802M109.561 208.898V227.878M109.561 208.898H127.802M109.561 227.878V246.859M109.561 227.878H127.802M109.561 246.859V265.839M109.561 246.859H127.802M109.561 265.839V284.82M109.561 265.839H127.802M109.561 284.82V303.801M109.561 284.82H127.802M109.561 303.801V322.781M109.561 303.801H127.802M109.561 322.781V341.762M109.561 322.781H127.802M109.561 341.762V360.742M109.561 341.762H127.802M109.561 360.742V379.723M109.561 360.742H127.802M109.561 379.723H127.802M127.802 0.111328V19.0919M127.802 0.111328H146.044M127.802 19.0919V38.0725M127.802 19.0919H146.044M127.802 38.0725V57.0531M127.802 38.0725H146.044M127.802 57.0531V76.0337M127.802 57.0531H146.044M127.802 76.0337V95.0142M127.802 76.0337H146.044M127.802 95.0142V113.995M127.802 95.0142H146.044M127.802 113.995V132.975M127.802 113.995H146.044M127.802 132.975V151.956M127.802 132.975H146.044M127.802 151.956V170.937M127.802 151.956H146.044M127.802 170.937V189.917M127.802 170.937H146.044M127.802 189.917V208.898M127.802 189.917H146.044M127.802 208.898V227.878M127.802 208.898H146.044M127.802 227.878V246.859M127.802 227.878H146.044M127.802 246.859V265.839M127.802 246.859H146.044M127.802 265.839V284.82M127.802 265.839H146.044M127.802 284.82V303.801M127.802 284.82H146.044M127.802 303.801V322.781M127.802 303.801H146.044M127.802 322.781V341.762M127.802 322.781H146.044M127.802 341.762V360.742M127.802 341.762H146.044M127.802 360.742V379.723M127.802 360.742H146.044M127.802 379.723H146.044M146.044 0.111328V19.0919M146.044 0.111328H164.285M146.044 19.0919V38.0725M146.044 19.0919H164.285M146.044 38.0725V57.0531M146.044 38.0725H164.285M146.044 57.0531V76.0337M146.044 57.0531H164.285M146.044 76.0337V95.0142M146.044 76.0337H164.285M146.044 95.0142V113.995M146.044 95.0142H164.285M146.044 113.995V132.975M146.044 113.995H164.285M146.044 132.975V151.956M146.044 132.975H164.285M146.044 151.956V170.937M146.044 151.956H164.285M146.044 170.937V189.917M146.044 170.937H164.285M146.044 189.917V208.898M146.044 189.917H164.285M146.044 208.898V227.878M146.044 208.898H164.285M146.044 227.878V246.859M146.044 227.878H164.285M146.044 246.859V265.839M146.044 246.859H164.285M146.044 265.839V284.82M146.044 265.839H164.285M146.044 284.82V303.801M146.044 284.82H164.285M146.044 303.801V322.781M146.044 303.801H164.285M146.044 322.781V341.762M146.044 322.781H164.285M146.044 341.762V360.742M146.044 341.762H164.285M146.044 360.742V379.723M146.044 360.742H164.285M146.044 379.723H164.285M164.285 0.111328V19.0919M164.285 0.111328H182.527M164.285 19.0919V38.0725M164.285 19.0919H182.527M164.285 38.0725V57.0531M164.285 38.0725H182.527M164.285 57.0531V76.0337M164.285 57.0531H182.527M164.285 76.0337V95.0142M164.285 76.0337H182.527M164.285 95.0142V113.995M164.285 95.0142H182.527M164.285 113.995V132.975M164.285 113.995H182.527M164.285 132.975V151.956M164.285 132.975H182.527M164.285 151.956V170.937M164.285 151.956H182.527M164.285 170.937V189.917M164.285 170.937H182.527M164.285 189.917V208.898M164.285 189.917H182.527M164.285 208.898V227.878M164.285 208.898H182.527M164.285 227.878V246.859M164.285 227.878H182.527M164.285 246.859V265.839M164.285 246.859H182.527M164.285 265.839V284.82M164.285 265.839H182.527M164.285 284.82V303.801M164.285 284.82H182.527M164.285 303.801V322.781M164.285 303.801H182.527M164.285 322.781V341.762M164.285 322.781H182.527M164.285 341.762V360.742M164.285 341.762H182.527M164.285 360.742V379.723M164.285 360.742H182.527M164.285 379.723H182.527M182.527 0.111328V19.0919M182.527 0.111328H200.768M182.527 19.0919V38.0725M182.527 19.0919H200.768M182.527 38.0725V57.0531M182.527 38.0725H200.768M182.527 57.0531V76.0337M182.527 57.0531H200.768M182.527 76.0337V95.0142M182.527 76.0337H200.768M182.527 95.0142V113.995M182.527 95.0142H200.768M182.527 113.995V132.975M182.527 113.995H200.768M182.527 132.975V151.956M182.527 132.975H200.768M182.527 151.956V170.937M182.527 151.956H200.768M182.527 170.937V189.917M182.527 170.937H200.768M182.527 189.917V208.898M182.527 189.917H200.768M182.527 208.898V227.878M182.527 208.898H200.768M182.527 227.878V246.859M182.527 227.878H200.768M182.527 246.859V265.839M182.527 246.859H200.768M182.527 265.839V284.82M182.527 265.839H200.768M182.527 284.82V303.801M182.527 284.82H200.768M182.527 303.801V322.781M182.527 303.801H200.768M182.527 322.781V341.762M182.527 322.781H200.768M182.527 341.762V360.742M182.527 341.762H200.768M182.527 360.742V379.723M182.527 360.742H200.768M182.527 379.723H200.768M200.768 0.111328V19.0919M200.768 0.111328H219.01M200.768 19.0919V38.0725M200.768 19.0919H219.01M200.768 38.0725V57.0531M200.768 38.0725H219.01M200.768 57.0531V76.0337M200.768 57.0531H219.01M200.768 76.0337V95.0142M200.768 76.0337H219.01M200.768 95.0142V113.995M200.768 95.0142H219.01M200.768 113.995V132.975M200.768 113.995H219.01M200.768 132.975V151.956M200.768 132.975H219.01M200.768 151.956V170.937M200.768 151.956H219.01M200.768 170.937V189.917M200.768 170.937H219.01M200.768 189.917V208.898M200.768 189.917H219.01M200.768 208.898V227.878M200.768 208.898H219.01M200.768 227.878V246.859M200.768 227.878H219.01M200.768 246.859V265.839M200.768 246.859H219.01M200.768 265.839V284.82M200.768 265.839H219.01M200.768 284.82V303.801M200.768 284.82H219.01M200.768 303.801V322.781M200.768 303.801H219.01M200.768 322.781V341.762M200.768 322.781H219.01M200.768 341.762V360.742M200.768 341.762H219.01M200.768 360.742V379.723M200.768 360.742H219.01M200.768 379.723H219.01M219.01 0.111328V19.0919M219.01 0.111328H237.251M219.01 19.0919V38.0725M219.01 19.0919H237.251M219.01 38.0725V57.0531M219.01 38.0725H237.251M219.01 57.0531V76.0337M219.01 57.0531H237.251M219.01 76.0337V95.0142M219.01 76.0337H237.251M219.01 95.0142V113.995M219.01 95.0142H237.251M219.01 113.995V132.975M219.01 113.995H237.251M219.01 132.975V151.956M219.01 132.975H237.251M219.01 151.956V170.937M219.01 151.956H237.251M219.01 170.937V189.917M219.01 170.937H237.251M219.01 189.917V208.898M219.01 189.917H237.251M219.01 208.898V227.878M219.01 208.898H237.251M219.01 227.878V246.859M219.01 227.878H237.251M219.01 246.859V265.839M219.01 246.859H237.251M219.01 265.839V284.82M219.01 265.839H237.251M219.01 284.82V303.801M219.01 284.82H237.251M219.01 303.801V322.781M219.01 303.801H237.251M219.01 322.781V341.762M219.01 322.781H237.251M219.01 341.762V360.742M219.01 341.762H237.251M219.01 360.742V379.723M219.01 360.742H237.251M219.01 379.723H237.251M237.251 0.111328V19.0919M237.251 0.111328H255.493M237.251 19.0919V38.0725M237.251 19.0919H255.493M237.251 38.0725V57.0531M237.251 38.0725H255.493M237.251 57.0531V76.0337M237.251 57.0531H255.493M237.251 76.0337V95.0142M237.251 76.0337H255.493M237.251 95.0142V113.995M237.251 95.0142H255.493M237.251 113.995V132.975M237.251 113.995H255.493M237.251 132.975V151.956M237.251 132.975H255.493M237.251 151.956V170.937M237.251 151.956H255.493M237.251 170.937V189.917M237.251 170.937H255.493M237.251 189.917V208.898M237.251 189.917H255.493M237.251 208.898V227.878M237.251 208.898H255.493M237.251 227.878V246.859M237.251 227.878H255.493M237.251 246.859V265.839M237.251 246.859H255.493M237.251 265.839V284.82M237.251 265.839H255.493M237.251 284.82V303.801M237.251 284.82H255.493M237.251 303.801V322.781M237.251 303.801H255.493M237.251 322.781V341.762M237.251 322.781H255.493M237.251 341.762V360.742M237.251 341.762H255.493M237.251 360.742V379.723M237.251 360.742H255.493M237.251 379.723H255.493M255.493 0.111328V19.0919M255.493 0.111328H273.734M255.493 19.0919V38.0725M255.493 19.0919H273.734M255.493 38.0725V57.0531M255.493 38.0725H273.734M255.493 57.0531V76.0337M255.493 57.0531H273.734M255.493 76.0337V95.0142M255.493 76.0337H273.734M255.493 95.0142V113.995M255.493 95.0142H273.734M255.493 113.995V132.975M255.493 113.995H273.734M255.493 132.975V151.956M255.493 132.975H273.734M255.493 151.956V170.937M255.493 151.956H273.734M255.493 170.937V189.917M255.493 170.937H273.734M255.493 189.917V208.898M255.493 189.917H273.734M255.493 208.898V227.878M255.493 208.898H273.734M255.493 227.878V246.859M255.493 227.878H273.734M255.493 246.859V265.839M255.493 246.859H273.734M255.493 265.839V284.82M255.493 265.839H273.734M255.493 284.82V303.801M255.493 284.82H273.734M255.493 303.801V322.781M255.493 303.801H273.734M255.493 322.781V341.762M255.493 322.781H273.734M255.493 341.762V360.742M255.493 341.762H273.734M255.493 360.742V379.723M255.493 360.742H273.734M255.493 379.723H273.734M273.734 0.111328V19.0919M273.734 0.111328H291.976M273.734 19.0919V38.0725M273.734 19.0919H291.976M273.734 38.0725V57.0531M273.734 38.0725H291.976M273.734 57.0531V76.0337M273.734 57.0531H291.976M273.734 76.0337V95.0142M273.734 76.0337H291.976M273.734 95.0142V113.995M273.734 95.0142H291.976M273.734 113.995V132.975M273.734 113.995H291.976M273.734 132.975V151.956M273.734 132.975H291.976M273.734 151.956V170.937M273.734 151.956H291.976M273.734 170.937V189.917M273.734 170.937H291.976M273.734 189.917V208.898M273.734 189.917H291.976M273.734 208.898V227.878M273.734 208.898H291.976M273.734 227.878V246.859M273.734 227.878H291.976M273.734 246.859V265.839M273.734 246.859H291.976M273.734 265.839V284.82M273.734 265.839H291.976M273.734 284.82V303.801M273.734 284.82H291.976M273.734 303.801V322.781M273.734 303.801H291.976M273.734 322.781V341.762M273.734 322.781H291.976M273.734 341.762V360.742M273.734 341.762H291.976M273.734 360.742V379.723M273.734 360.742H291.976M273.734 379.723H291.976M291.976 0.111328V19.0919M291.976 0.111328H310.218M291.976 19.0919V38.0725M291.976 19.0919H310.218M291.976 38.0725V57.0531M291.976 38.0725H310.218M291.976 57.0531V76.0337M291.976 57.0531H310.218M291.976 76.0337V95.0142M291.976 76.0337H310.218M291.976 95.0142V113.995M291.976 95.0142H310.218M291.976 113.995V132.975M291.976 113.995H310.218M291.976 132.975V151.956M291.976 132.975H310.218M291.976 151.956V170.937M291.976 151.956H310.218M291.976 170.937V189.917M291.976 170.937H310.218M291.976 189.917V208.898M291.976 189.917H310.218M291.976 208.898V227.878M291.976 208.898H310.218M291.976 227.878V246.859M291.976 227.878H310.218M291.976 246.859V265.839M291.976 246.859H310.218M291.976 265.839V284.82M291.976 265.839H310.218M291.976 284.82V303.801M291.976 284.82H310.218M291.976 303.801V322.781M291.976 303.801H310.218M291.976 322.781V341.762M291.976 322.781H310.218M291.976 341.762V360.742M291.976 341.762H310.218M291.976 360.742V379.723M291.976 360.742H310.218M291.976 379.723H310.218M310.218 0.111328V19.0919M310.218 0.111328H328.459M310.218 19.0919V38.0725M310.218 19.0919H328.459M310.218 38.0725V57.0531M310.218 38.0725H328.459M310.218 57.0531V76.0337M310.218 57.0531H328.459M310.218 76.0337V95.0142M310.218 76.0337H328.459M310.218 95.0142V113.995M310.218 95.0142H328.459M310.218 113.995V132.975M310.218 113.995H328.459M310.218 132.975V151.956M310.218 132.975H328.459M310.218 151.956V170.937M310.218 151.956H328.459M310.218 170.937V189.917M310.218 170.937H328.459M310.218 189.917V208.898M310.218 189.917H328.459M310.218 208.898V227.878M310.218 208.898H328.459M310.218 227.878V246.859M310.218 227.878H328.459M310.218 246.859V265.839M310.218 246.859H328.459M310.218 265.839V284.82M310.218 265.839H328.459M310.218 284.82V303.801M310.218 284.82H328.459M310.218 303.801V322.781M310.218 303.801H328.459M310.218 322.781V341.762M310.218 322.781H328.459M310.218 341.762V360.742M310.218 341.762H328.459M310.218 360.742V379.723M310.218 360.742H328.459M310.218 379.723H328.459M328.459 0.111328V19.0919M328.459 0.111328H346.701M328.459 19.0919V38.0725M328.459 19.0919H346.701M328.459 38.0725V57.0531M328.459 38.0725H346.701M328.459 57.0531V76.0337M328.459 57.0531H346.701M328.459 76.0337V95.0142M328.459 76.0337H346.701M328.459 95.0142V113.995M328.459 95.0142H346.701M328.459 113.995V132.975M328.459 113.995H346.701M328.459 132.975V151.956M328.459 132.975H346.701M328.459 151.956V170.937M328.459 151.956H346.701M328.459 170.937V189.917M328.459 170.937H346.701M328.459 189.917V208.898M328.459 189.917H346.701M328.459 208.898V227.878M328.459 208.898H346.701M328.459 227.878V246.859M328.459 227.878H346.701M328.459 246.859V265.839M328.459 246.859H346.701M328.459 265.839V284.82M328.459 265.839H346.701M328.459 284.82V303.801M328.459 284.82H346.701M328.459 303.801V322.781M328.459 303.801H346.701M328.459 322.781V341.762M328.459 322.781H346.701M328.459 341.762V360.742M328.459 341.762H346.701M328.459 360.742V379.723M328.459 360.742H346.701M328.459 379.723H346.701M346.701 0.111328V19.0919M346.701 0.111328H364.942M346.701 19.0919V38.0725M346.701 19.0919H364.942M346.701 38.0725V57.0531M346.701 38.0725H364.942M346.701 57.0531V76.0337M346.701 57.0531H364.942M346.701 76.0337V95.0142M346.701 76.0337H364.942M346.701 95.0142V113.995M346.701 95.0142H364.942M346.701 113.995V132.975M346.701 113.995H364.942M346.701 132.975V151.956M346.701 132.975H364.942M346.701 151.956V170.937M346.701 151.956H364.942M346.701 170.937V189.917M346.701 170.937H364.942M346.701 189.917V208.898M346.701 189.917H364.942M346.701 208.898V227.878M346.701 208.898H364.942M346.701 227.878V246.859M346.701 227.878H364.942M346.701 246.859V265.839M346.701 246.859H364.942M346.701 265.839V284.82M346.701 265.839H364.942M346.701 284.82V303.801M346.701 284.82H364.942M346.701 303.801V322.781M346.701 303.801H364.942M346.701 322.781V341.762M346.701 322.781H364.942M346.701 341.762V360.742M346.701 341.762H364.942M346.701 360.742V379.723M346.701 360.742H364.942M346.701 379.723H364.942M364.942 0.111328V19.0919M364.942 0.111328H383.184M364.942 19.0919V38.0725M364.942 19.0919H383.184M364.942 38.0725V57.0531M364.942 38.0725H383.184M364.942 57.0531V76.0337M364.942 57.0531H383.184M364.942 76.0337V95.0142M364.942 76.0337H383.184M364.942 95.0142V113.995M364.942 95.0142H383.184M364.942 113.995V132.975M364.942 113.995H383.184M364.942 132.975V151.956M364.942 132.975H383.184M364.942 151.956V170.937M364.942 151.956H383.184M364.942 170.937V189.917M364.942 170.937H383.184M364.942 189.917V208.898M364.942 189.917H383.184M364.942 208.898V227.878M364.942 208.898H383.184M364.942 227.878V246.859M364.942 227.878H383.184M364.942 246.859V265.839M364.942 246.859H383.184M364.942 265.839V284.82M364.942 265.839H383.184M364.942 284.82V303.801M364.942 284.82H383.184M364.942 303.801V322.781M364.942 303.801H383.184M364.942 322.781V341.762M364.942 322.781H383.184M364.942 341.762V360.742M364.942 341.762H383.184M364.942 360.742V379.723M364.942 360.742H383.184M364.942 379.723H383.184M383.184 0.111328V19.0919M383.184 0.111328H401.425M383.184 19.0919V38.0725M383.184 19.0919H401.425M383.184 38.0725V57.0531M383.184 38.0725H401.425M383.184 57.0531V76.0337M383.184 57.0531H401.425M383.184 76.0337V95.0142M383.184 76.0337H401.425M383.184 95.0142V113.995M383.184 95.0142H401.425M383.184 113.995V132.975M383.184 113.995H401.425M383.184 132.975V151.956M383.184 132.975H401.425M383.184 151.956V170.937M383.184 151.956H401.425M383.184 170.937V189.917M383.184 170.937H401.425M383.184 189.917V208.898M383.184 189.917H401.425M383.184 208.898V227.878M383.184 208.898H401.425M383.184 227.878V246.859M383.184 227.878H401.425M383.184 246.859V265.839M383.184 246.859H401.425M383.184 265.839V284.82M383.184 265.839H401.425M383.184 284.82V303.801M383.184 284.82H401.425M383.184 303.801V322.781M383.184 303.801H401.425M383.184 322.781V341.762M383.184 322.781H401.425M383.184 341.762V360.742M383.184 341.762H401.425M383.184 360.742V379.723M383.184 360.742H401.425M383.184 379.723H401.425M401.425 0.111328V19.0919M401.425 0.111328H419.667M401.425 19.0919V38.0725M401.425 19.0919H419.667M401.425 38.0725V57.0531M401.425 38.0725H419.667M401.425 57.0531V76.0337M401.425 57.0531H419.667M401.425 76.0337V95.0142M401.425 76.0337H419.667M401.425 95.0142V113.995M401.425 95.0142H419.667M401.425 113.995V132.975M401.425 113.995H419.667M401.425 132.975V151.956M401.425 132.975H419.667M401.425 151.956V170.937M401.425 151.956H419.667M401.425 170.937V189.917M401.425 170.937H419.667M401.425 189.917V208.898M401.425 189.917H419.667M401.425 208.898V227.878M401.425 208.898H419.667M401.425 227.878V246.859M401.425 227.878H419.667M401.425 246.859V265.839M401.425 246.859H419.667M401.425 265.839V284.82M401.425 265.839H419.667M401.425 284.82V303.801M401.425 284.82H419.667M401.425 303.801V322.781M401.425 303.801H419.667M401.425 322.781V341.762M401.425 322.781H419.667M401.425 341.762V360.742M401.425 341.762H419.667M401.425 360.742V379.723M401.425 360.742H419.667M401.425 379.723H419.667M419.667 0.111328V19.0919M419.667 0.111328H437.908M419.667 19.0919V38.0725M419.667 19.0919H437.908M419.667 38.0725V57.0531M419.667 38.0725H437.908M419.667 57.0531V76.0337M419.667 57.0531H437.908M419.667 76.0337V95.0142M419.667 76.0337H437.908M419.667 95.0142V113.995M419.667 95.0142H437.908M419.667 113.995V132.975M419.667 113.995H437.908M419.667 132.975V151.956M419.667 132.975H437.908M419.667 151.956V170.937M419.667 151.956H437.908M419.667 170.937V189.917M419.667 170.937H437.908M419.667 189.917V208.898M419.667 189.917H437.908M419.667 208.898V227.878M419.667 208.898H437.908M419.667 227.878V246.859M419.667 227.878H437.908M419.667 246.859V265.839M419.667 246.859H437.908M419.667 265.839V284.82M419.667 265.839H437.908M419.667 284.82V303.801M419.667 284.82H437.908M419.667 303.801V322.781M419.667 303.801H437.908M419.667 322.781V341.762M419.667 322.781H437.908M419.667 341.762V360.742M419.667 341.762H437.908M419.667 360.742V379.723M419.667 360.742H437.908M419.667 379.723H437.908M437.908 0.111328V19.0919M437.908 0.111328H456.15M437.908 19.0919V38.0725M437.908 19.0919H456.15M437.908 38.0725V57.0531M437.908 38.0725H456.15M437.908 57.0531V76.0337M437.908 57.0531H456.15M437.908 76.0337V95.0142M437.908 76.0337H456.15M437.908 95.0142V113.995M437.908 95.0142H456.15M437.908 113.995V132.975M437.908 113.995H456.15M437.908 132.975V151.956M437.908 132.975H456.15M437.908 151.956V170.937M437.908 151.956H456.15M437.908 170.937V189.917M437.908 170.937H456.15M437.908 189.917V208.898M437.908 189.917H456.15M437.908 208.898V227.878M437.908 208.898H456.15M437.908 227.878V246.859M437.908 227.878H456.15M437.908 246.859V265.839M437.908 246.859H456.15M437.908 265.839V284.82M437.908 265.839H456.15M437.908 284.82V303.801M437.908 284.82H456.15M437.908 303.801V322.781M437.908 303.801H456.15M437.908 322.781V341.762M437.908 322.781H456.15M437.908 341.762V360.742M437.908 341.762H456.15M437.908 360.742V379.723M437.908 360.742H456.15M437.908 379.723H456.15M456.15 0.111328V19.0919M456.15 0.111328H474.391M456.15 19.0919V38.0725M456.15 19.0919H474.391M456.15 38.0725V57.0531M456.15 38.0725H474.391M456.15 57.0531V76.0337M456.15 57.0531H474.391M456.15 76.0337V95.0142M456.15 76.0337H474.391M456.15 95.0142V113.995M456.15 95.0142H474.391M456.15 113.995V132.975M456.15 113.995H474.391M456.15 132.975V151.956M456.15 132.975H474.391M456.15 151.956V170.937M456.15 151.956H474.391M456.15 170.937V189.917M456.15 170.937H474.391M456.15 189.917V208.898M456.15 189.917H474.391M456.15 208.898V227.878M456.15 208.898H474.391M456.15 227.878V246.859M456.15 227.878H474.391M456.15 246.859V265.839M456.15 246.859H474.391M456.15 265.839V284.82M456.15 265.839H474.391M456.15 284.82V303.801M456.15 284.82H474.391M456.15 303.801V322.781M456.15 303.801H474.391M456.15 322.781V341.762M456.15 322.781H474.391M456.15 341.762V360.742M456.15 341.762H474.391M456.15 360.742V379.723M456.15 360.742H474.391M456.15 379.723H474.391M474.391 0.111328V19.0919M474.391 0.111328H492.633M474.391 19.0919V38.0725M474.391 19.0919H492.633M474.391 38.0725V57.0531M474.391 38.0725H492.633M474.391 57.0531V76.0337M474.391 57.0531H492.633M474.391 76.0337V95.0142M474.391 76.0337H492.633M474.391 95.0142V113.995M474.391 95.0142H492.633M474.391 113.995V132.975M474.391 113.995H492.633M474.391 132.975V151.956M474.391 132.975H492.633M474.391 151.956V170.937M474.391 151.956H492.633M474.391 170.937V189.917M474.391 170.937H492.633M474.391 189.917V208.898M474.391 189.917H492.633M474.391 208.898V227.878M474.391 208.898H492.633M474.391 227.878V246.859M474.391 227.878H492.633M474.391 246.859V265.839M474.391 246.859H492.633M474.391 265.839V284.82M474.391 265.839H492.633M474.391 284.82V303.801M474.391 284.82H492.633M474.391 303.801V322.781M474.391 303.801H492.633M474.391 322.781V341.762M474.391 322.781H492.633M474.391 341.762V360.742M474.391 341.762H492.633M474.391 360.742V379.723M474.391 360.742H492.633M474.391 379.723H492.633M492.633 0.111328V19.0919M492.633 0.111328H510.875M492.633 19.0919V38.0725M492.633 19.0919H510.875M492.633 38.0725V57.0531M492.633 38.0725H510.875M492.633 57.0531V76.0337M492.633 57.0531H510.875M492.633 76.0337V95.0142M492.633 76.0337H510.875M492.633 95.0142V113.995M492.633 95.0142H510.875M492.633 113.995V132.975M492.633 113.995H510.875M492.633 132.975V151.956M492.633 132.975H510.875M492.633 151.956V170.937M492.633 151.956H510.875M492.633 170.937V189.917M492.633 170.937H510.875M492.633 189.917V208.898M492.633 189.917H510.875M492.633 208.898V227.878M492.633 208.898H510.875M492.633 227.878V246.859M492.633 227.878H510.875M492.633 246.859V265.839M492.633 246.859H510.875M492.633 265.839V284.82M492.633 265.839H510.875M492.633 284.82V303.801M492.633 284.82H510.875M492.633 303.801V322.781M492.633 303.801H510.875M492.633 322.781V341.762M492.633 322.781H510.875M492.633 341.762V360.742M492.633 341.762H510.875M492.633 360.742V379.723M492.633 360.742H510.875M492.633 379.723H510.875M510.875 0.111328V19.0919M510.875 0.111328H529.116M510.875 19.0919V38.0725M510.875 19.0919H529.116M510.875 38.0725V57.0531M510.875 38.0725H529.116M510.875 57.0531V76.0337M510.875 57.0531H529.116M510.875 76.0337V95.0142M510.875 76.0337H529.116M510.875 95.0142V113.995M510.875 95.0142H529.116M510.875 113.995V132.975M510.875 113.995H529.116M510.875 132.975V151.956M510.875 132.975H529.116M510.875 151.956V170.937M510.875 151.956H529.116M510.875 170.937V189.917M510.875 170.937H529.116M510.875 189.917V208.898M510.875 189.917H529.116M510.875 208.898V227.878M510.875 208.898H529.116M510.875 227.878V246.859M510.875 227.878H529.116M510.875 246.859V265.839M510.875 246.859H529.116M510.875 265.839V284.82M510.875 265.839H529.116M510.875 284.82V303.801M510.875 284.82H529.116M510.875 303.801V322.781M510.875 303.801H529.116M510.875 322.781V341.762M510.875 322.781H529.116M510.875 341.762V360.742M510.875 341.762H529.116M510.875 360.742V379.723M510.875 360.742H529.116M510.875 379.723H529.116M529.116 0.111328V19.0919M529.116 0.111328H547.358M529.116 19.0919V38.0725M529.116 19.0919H547.358M529.116 38.0725V57.0531M529.116 38.0725H547.358M529.116 57.0531V76.0337M529.116 57.0531H547.358M529.116 76.0337V95.0142M529.116 76.0337H547.358M529.116 95.0142V113.995M529.116 95.0142H547.358M529.116 113.995V132.975M529.116 113.995H547.358M529.116 132.975V151.956M529.116 132.975H547.358M529.116 151.956V170.937M529.116 151.956H547.358M529.116 170.937V189.917M529.116 170.937H547.358M529.116 189.917V208.898M529.116 189.917H547.358M529.116 208.898V227.878M529.116 208.898H547.358M529.116 227.878V246.859M529.116 227.878H547.358M529.116 246.859V265.839M529.116 246.859H547.358M529.116 265.839V284.82M529.116 265.839H547.358M529.116 284.82V303.801M529.116 284.82H547.358M529.116 303.801V322.781M529.116 303.801H547.358M529.116 322.781V341.762M529.116 322.781H547.358M529.116 341.762V360.742M529.116 341.762H547.358M529.116 360.742V379.723M529.116 360.742H547.358M529.116 379.723H547.358M547.358 0.111328V19.0919M547.358 0.111328H565.599M547.358 19.0919V38.0725M547.358 19.0919H565.599M547.358 38.0725V57.0531M547.358 38.0725H565.599M547.358 57.0531V76.0337M547.358 57.0531H565.599M547.358 76.0337V95.0142M547.358 76.0337H565.599M547.358 95.0142V113.995M547.358 95.0142H565.599M547.358 113.995V132.975M547.358 113.995H565.599M547.358 132.975V151.956M547.358 132.975H565.599M547.358 151.956V170.937M547.358 151.956H565.599M547.358 170.937V189.917M547.358 170.937H565.599M547.358 189.917V208.898M547.358 189.917H565.599M547.358 208.898V227.878M547.358 208.898H565.599M547.358 227.878V246.859M547.358 227.878H565.599M547.358 246.859V265.839M547.358 246.859H565.599M547.358 265.839V284.82M547.358 265.839H565.599M547.358 284.82V303.801M547.358 284.82H565.599M547.358 303.801V322.781M547.358 303.801H565.599M547.358 322.781V341.762M547.358 322.781H565.599M547.358 341.762V360.742M547.358 341.762H565.599M547.358 360.742V379.723M547.358 360.742H565.599M547.358 379.723H565.599M565.599 0.111328V19.0919M565.599 0.111328H583.841M565.599 19.0919V38.0725M565.599 19.0919H583.841M565.599 38.0725V57.0531M565.599 38.0725H583.841M565.599 57.0531V76.0337M565.599 57.0531H583.841M565.599 76.0337V95.0142M565.599 76.0337H583.841M565.599 95.0142V113.995M565.599 95.0142H583.841M565.599 113.995V132.975M565.599 113.995H583.841M565.599 132.975V151.956M565.599 132.975H583.841M565.599 151.956V170.937M565.599 151.956H583.841M565.599 170.937V189.917M565.599 170.937H583.841M565.599 189.917V208.898M565.599 189.917H583.841M565.599 208.898V227.878M565.599 208.898H583.841M565.599 227.878V246.859M565.599 227.878H583.841M565.599 246.859V265.839M565.599 246.859H583.841M565.599 265.839V284.82M565.599 265.839H583.841M565.599 284.82V303.801M565.599 284.82H583.841M565.599 303.801V322.781M565.599 303.801H583.841M565.599 322.781V341.762M565.599 322.781H583.841M565.599 341.762V360.742M565.599 341.762H583.841M565.599 360.742V379.723M565.599 360.742H583.841M565.599 379.723H583.841M583.841 0.111328V19.0919M583.841 0.111328H602.082M583.841 19.0919V38.0725M583.841 19.0919H602.082M583.841 38.0725V57.0531M583.841 38.0725H602.082M583.841 57.0531V76.0337M583.841 57.0531H602.082M583.841 76.0337V95.0142M583.841 76.0337H602.082M583.841 95.0142V113.995M583.841 95.0142H602.082M583.841 113.995V132.975M583.841 113.995H602.082M583.841 132.975V151.956M583.841 132.975H602.082M583.841 151.956V170.937M583.841 151.956H602.082M583.841 170.937V189.917M583.841 170.937H602.082M583.841 189.917V208.898M583.841 189.917H602.082M583.841 208.898V227.878M583.841 208.898H602.082M583.841 227.878V246.859M583.841 227.878H602.082M583.841 246.859V265.839M583.841 246.859H602.082M583.841 265.839V284.82M583.841 265.839H602.082M583.841 284.82V303.801M583.841 284.82H602.082M583.841 303.801V322.781M583.841 303.801H602.082M583.841 322.781V341.762M583.841 322.781H602.082M583.841 341.762V360.742M583.841 341.762H602.082M583.841 360.742V379.723M583.841 360.742H602.082M583.841 379.723H602.082M602.082 0.111328V19.0919M602.082 0.111328H620.324M602.082 19.0919V38.0725M602.082 19.0919H620.324M602.082 38.0725V57.0531M602.082 38.0725H620.324M602.082 57.0531V76.0337M602.082 57.0531H620.324M602.082 76.0337V95.0142M602.082 76.0337H620.324M602.082 95.0142V113.995M602.082 95.0142H620.324M602.082 113.995V132.975M602.082 113.995H620.324M602.082 132.975V151.956M602.082 132.975H620.324M602.082 151.956V170.937M602.082 151.956H620.324M602.082 170.937V189.917M602.082 170.937H620.324M602.082 189.917V208.898M602.082 189.917H620.324M602.082 208.898V227.878M602.082 208.898H620.324M602.082 227.878V246.859M602.082 227.878H620.324M602.082 246.859V265.839M602.082 246.859H620.324M602.082 265.839V284.82M602.082 265.839H620.324M602.082 284.82V303.801M602.082 284.82H620.324M602.082 303.801V322.781M602.082 303.801H620.324M602.082 322.781V341.762M602.082 322.781H620.324M602.082 341.762V360.742M602.082 341.762H620.324M602.082 360.742V379.723M602.082 360.742H620.324M602.082 379.723H620.324M620.324 0.111328V19.0919M620.324 0.111328H638.565M620.324 19.0919V38.0725M620.324 19.0919H638.565M620.324 38.0725V57.0531M620.324 38.0725H638.565M620.324 57.0531V76.0337M620.324 57.0531H638.565M620.324 76.0337V95.0142M620.324 76.0337H638.565M620.324 95.0142V113.995M620.324 95.0142H638.565M620.324 113.995V132.975M620.324 113.995H638.565M620.324 132.975V151.956M620.324 132.975H638.565M620.324 151.956V170.937M620.324 151.956H638.565M620.324 170.937V189.917M620.324 170.937H638.565M620.324 189.917V208.898M620.324 189.917H638.565M620.324 208.898V227.878M620.324 208.898H638.565M620.324 227.878V246.859M620.324 227.878H638.565M620.324 246.859V265.839M620.324 246.859H638.565M620.324 265.839V284.82M620.324 265.839H638.565M620.324 284.82V303.801M620.324 284.82H638.565M620.324 303.801V322.781M620.324 303.801H638.565M620.324 322.781V341.762M620.324 322.781H638.565M620.324 341.762V360.742M620.324 341.762H638.565M620.324 360.742V379.723M620.324 360.742H638.565M620.324 379.723H638.565M638.565 0.111328V19.0919M638.565 0.111328H656.807M638.565 19.0919V38.0725M638.565 19.0919H656.807M638.565 38.0725V57.0531M638.565 38.0725H656.807M638.565 57.0531V76.0337M638.565 57.0531H656.807M638.565 76.0337V95.0142M638.565 76.0337H656.807M638.565 95.0142V113.995M638.565 95.0142H656.807M638.565 113.995V132.975M638.565 113.995H656.807M638.565 132.975V151.956M638.565 132.975H656.807M638.565 151.956V170.937M638.565 151.956H656.807M638.565 170.937V189.917M638.565 170.937H656.807M638.565 189.917V208.898M638.565 189.917H656.807M638.565 208.898V227.878M638.565 208.898H656.807M638.565 227.878V246.859M638.565 227.878H656.807M638.565 246.859V265.839M638.565 246.859H656.807M638.565 265.839V284.82M638.565 265.839H656.807M638.565 284.82V303.801M638.565 284.82H656.807M638.565 303.801V322.781M638.565 303.801H656.807M638.565 322.781V341.762M638.565 322.781H656.807M638.565 341.762V360.742M638.565 341.762H656.807M638.565 360.742V379.723M638.565 360.742H656.807M638.565 379.723H656.807M656.807 0.111328V19.0919M656.807 0.111328H675.048M656.807 19.0919V38.0725M656.807 19.0919H675.048M656.807 38.0725V57.0531M656.807 38.0725H675.048M656.807 57.0531V76.0337M656.807 57.0531H675.048M656.807 76.0337V95.0142M656.807 76.0337H675.048M656.807 95.0142V113.995M656.807 95.0142H675.048M656.807 113.995V132.975M656.807 113.995H675.048M656.807 132.975V151.956M656.807 132.975H675.048M656.807 151.956V170.937M656.807 151.956H675.048M656.807 170.937V189.917M656.807 170.937H675.048M656.807 189.917V208.898M656.807 189.917H675.048M656.807 208.898V227.878M656.807 208.898H675.048M656.807 227.878V246.859M656.807 227.878H675.048M656.807 246.859V265.839M656.807 246.859H675.048M656.807 265.839V284.82M656.807 265.839H675.048M656.807 284.82V303.801M656.807 284.82H675.048M656.807 303.801V322.781M656.807 303.801H675.048M656.807 322.781V341.762M656.807 322.781H675.048M656.807 341.762V360.742M656.807 341.762H675.048M656.807 360.742V379.723M656.807 360.742H675.048M656.807 379.723H675.048M675.048 0.111328V19.0919M675.048 0.111328H693.29M675.048 19.0919V38.0725M675.048 19.0919H693.29M675.048 38.0725V57.0531M675.048 38.0725H693.29M675.048 57.0531V76.0337M675.048 57.0531H693.29M675.048 76.0337V95.0142M675.048 76.0337H693.29M675.048 95.0142V113.995M675.048 95.0142H693.29M675.048 113.995V132.975M675.048 113.995H693.29M675.048 132.975V151.956M675.048 132.975H693.29M675.048 151.956V170.937M675.048 151.956H693.29M675.048 170.937V189.917M675.048 170.937H693.29M675.048 189.917V208.898M675.048 189.917H693.29M675.048 208.898V227.878M675.048 208.898H693.29M675.048 227.878V246.859M675.048 227.878H693.29M675.048 246.859V265.839M675.048 246.859H693.29M675.048 265.839V284.82M675.048 265.839H693.29M675.048 284.82V303.801M675.048 284.82H693.29M675.048 303.801V322.781M675.048 303.801H693.29M675.048 322.781V341.762M675.048 322.781H693.29M675.048 341.762V360.742M675.048 341.762H693.29M675.048 360.742V379.723M675.048 360.742H693.29M675.048 379.723H693.29M693.29 0.111328V19.0919M693.29 0.111328H711.531M693.29 19.0919V38.0725M693.29 19.0919H711.531M693.29 38.0725V57.0531M693.29 38.0725H711.531M693.29 57.0531V76.0337M693.29 57.0531H711.531M693.29 76.0337V95.0142M693.29 76.0337H711.531M693.29 95.0142V113.995M693.29 95.0142H711.531M693.29 113.995V132.975M693.29 113.995H711.531M693.29 132.975V151.956M693.29 132.975H711.531M693.29 151.956V170.937M693.29 151.956H711.531M693.29 170.937V189.917M693.29 170.937H711.531M693.29 189.917V208.898M693.29 189.917H711.531M693.29 208.898V227.878M693.29 208.898H711.531M693.29 227.878V246.859M693.29 227.878H711.531M693.29 246.859V265.839M693.29 246.859H711.531M693.29 265.839V284.82M693.29 265.839H711.531M693.29 284.82V303.801M693.29 284.82H711.531M693.29 303.801V322.781M693.29 303.801H711.531M693.29 322.781V341.762M693.29 322.781H711.531M693.29 341.762V360.742M693.29 341.762H711.531M693.29 360.742V379.723M693.29 360.742H711.531M693.29 379.723H711.531M711.531 0.111328V19.0919M711.531 0.111328H729.773M711.531 19.0919V38.0725M711.531 19.0919H729.773M711.531 38.0725V57.0531M711.531 38.0725H729.773M711.531 57.0531V76.0337M711.531 57.0531H729.773M711.531 76.0337V95.0142M711.531 76.0337H729.773M711.531 95.0142V113.995M711.531 95.0142H729.773M711.531 113.995V132.975M711.531 113.995H729.773M711.531 132.975V151.956M711.531 132.975H729.773M711.531 151.956V170.937M711.531 151.956H729.773M711.531 170.937V189.917M711.531 170.937H729.773M711.531 189.917V208.898M711.531 189.917H729.773M711.531 208.898V227.878M711.531 208.898H729.773M711.531 227.878V246.859M711.531 227.878H729.773M711.531 246.859V265.839M711.531 246.859H729.773M711.531 265.839V284.82M711.531 265.839H729.773M711.531 284.82V303.801M711.531 284.82H729.773M711.531 303.801V322.781M711.531 303.801H729.773M711.531 322.781V341.762M711.531 322.781H729.773M711.531 341.762V360.742M711.531 341.762H729.773M711.531 360.742V379.723M711.531 360.742H729.773M711.531 379.723H729.773M729.773 0.111328V19.0919M729.773 0.111328H748.015M729.773 19.0919V38.0725M729.773 19.0919H748.015M729.773 38.0725V57.0531M729.773 38.0725H748.015M729.773 57.0531V76.0337M729.773 57.0531H748.015M729.773 76.0337V95.0142M729.773 76.0337H748.015M729.773 95.0142V113.995M729.773 95.0142H748.015M729.773 113.995V132.975M729.773 113.995H748.015M729.773 132.975V151.956M729.773 132.975H748.015M729.773 151.956V170.937M729.773 151.956H748.015M729.773 170.937V189.917M729.773 170.937H748.015M729.773 189.917V208.898M729.773 189.917H748.015M729.773 208.898V227.878M729.773 208.898H748.015M729.773 227.878V246.859M729.773 227.878H748.015M729.773 246.859V265.839M729.773 246.859H748.015M729.773 265.839V284.82M729.773 265.839H748.015M729.773 284.82V303.801M729.773 284.82H748.015M729.773 303.801V322.781M729.773 303.801H748.015M729.773 322.781V341.762M729.773 322.781H748.015M729.773 341.762V360.742M729.773 341.762H748.015M729.773 360.742V379.723M729.773 360.742H748.015M729.773 379.723H748.015M748.015 0.111328V19.0919M748.015 0.111328H766.256M748.015 19.0919V38.0725M748.015 19.0919H766.256M748.015 38.0725V57.0531M748.015 38.0725H766.256M748.015 57.0531V76.0337M748.015 57.0531H766.256M748.015 76.0337V95.0142M748.015 76.0337H766.256M748.015 95.0142V113.995M748.015 95.0142H766.256M748.015 113.995V132.975M748.015 113.995H766.256M748.015 132.975V151.956M748.015 132.975H766.256M748.015 151.956V170.937M748.015 151.956H766.256M748.015 170.937V189.917M748.015 170.937H766.256M748.015 189.917V208.898M748.015 189.917H766.256M748.015 208.898V227.878M748.015 208.898H766.256M748.015 227.878V246.859M748.015 227.878H766.256M748.015 246.859V265.839M748.015 246.859H766.256M748.015 265.839V284.82M748.015 265.839H766.256M748.015 284.82V303.801M748.015 284.82H766.256M748.015 303.801V322.781M748.015 303.801H766.256M748.015 322.781V341.762M748.015 322.781H766.256M748.015 341.762V360.742M748.015 341.762H766.256M748.015 360.742V379.723M748.015 360.742H766.256M748.015 379.723H766.256M766.256 0.111328V19.0919M766.256 0.111328H784.498M766.256 19.0919V38.0725M766.256 19.0919H784.498M766.256 38.0725V57.0531M766.256 38.0725H784.498M766.256 57.0531V76.0337M766.256 57.0531H784.498M766.256 76.0337V95.0142M766.256 76.0337H784.498M766.256 95.0142V113.995M766.256 95.0142H784.498M766.256 113.995V132.975M766.256 113.995H784.498M766.256 132.975V151.956M766.256 132.975H784.498M766.256 151.956V170.937M766.256 151.956H784.498M766.256 170.937V189.917M766.256 170.937H784.498M766.256 189.917V208.898M766.256 189.917H784.498M766.256 208.898V227.878M766.256 208.898H784.498M766.256 227.878V246.859M766.256 227.878H784.498M766.256 246.859V265.839M766.256 246.859H784.498M766.256 265.839V284.82M766.256 265.839H784.498M766.256 284.82V303.801M766.256 284.82H784.498M766.256 303.801V322.781M766.256 303.801H784.498M766.256 322.781V341.762M766.256 322.781H784.498M766.256 341.762V360.742M766.256 341.762H784.498M766.256 360.742V379.723M766.256 360.742H784.498M766.256 379.723H784.498M784.498 0.111328V19.0919M784.498 0.111328H802.739V19.0919M784.498 19.0919V38.0725M784.498 19.0919H802.739M784.498 38.0725V57.0531M784.498 38.0725H802.739M784.498 57.0531V76.0337M784.498 57.0531H802.739M784.498 76.0337V95.0142M784.498 76.0337H802.739M784.498 95.0142V113.995M784.498 95.0142H802.739M784.498 113.995V132.975M784.498 113.995H802.739M784.498 132.975V151.956M784.498 132.975H802.739M784.498 151.956V170.937M784.498 151.956H802.739M784.498 170.937V189.917M784.498 170.937H802.739M784.498 189.917V208.898M784.498 189.917H802.739M784.498 208.898V227.878M784.498 208.898H802.739M784.498 227.878V246.859M784.498 227.878H802.739M784.498 246.859V265.839M784.498 246.859H802.739M784.498 265.839V284.82M784.498 265.839H802.739M784.498 284.82V303.801M784.498 284.82H802.739M784.498 303.801V322.781M784.498 303.801H802.739M784.498 322.781V341.762M784.498 322.781H802.739M784.498 341.762V360.742M784.498 341.762H802.739M784.498 360.742V379.723M784.498 360.742H802.739M784.498 379.723H802.739V360.742M802.739 19.0919V38.0725M802.739 38.0725V57.0531M802.739 57.0531V76.0337M802.739 76.0337V95.0142M802.739 95.0142V113.995M802.739 113.995V132.975M802.739 132.975V151.956M802.739 151.956V170.937M802.739 170.937V189.917M802.739 189.917V208.898M802.739 208.898V227.878M802.739 227.878V246.859M802.739 246.859V265.839M802.739 265.839V284.82M802.739 284.82V303.801M802.739 303.801V322.781M802.739 322.781V341.762M802.739 341.762V360.742" stroke="url(#paint0_radial_119_125)" stroke-width="0.222694"/>
</g>
<defs>
<radialGradient id="paint0_radial_119_125" cx="0" cy="0" r="1" gradientUnits="userSpaceOnUse" gradientTransform="translate(401.425 189.917) rotate(90) scale(189.806 401.314)">
<stop stop-color="#E61707"/>
<stop offset="1" stop-color="#E61707" stop-opacity="0"/>
</radialGradient>
</defs>
</svg>
